<!-- <svg width="76" height="69" viewBox="0 0 76 69" fill="none" xmlns="http://www.w3.org/2000/svg">
<path d="M46.7605 36.3343C46.7605 36.3343 47.5388 28.8131 55.0988 7.38496C56.2936 3.37945 56.5966 0.30866 53.768 2.87982C51.6182 5.08046 51.2817 10.8712 51.2817 10.8712C51.2817 10.8712 50.0125 7.59127 50.9942 4.14996C51.105 1.54652 50.143 -2.78459 47.787 2.50649C47.1377 7.32601 47.8992 9.09298 47.8992 9.09298C47.8992 9.09298 45.9317 6.28043 46.5067 2.86017C46.7942 0.390061 44.793 -0.207817 44.1746 0.882679C43.5561 1.97177 42.7301 6.15131 45.4395 10.3224C45.4395 10.3224 42.5226 8.23125 41.8158 4.65801C41.0936 2.69737 41.0936 2.69737 39.4865 4.70293C37.8794 6.70848 38.5484 10.4754 43.5491 15.3019C43.5491 15.3019 39.2748 13.9518 36.8165 8.51756C36.8165 8.51756 32.7861 12.0627 39.5146 16.8275C34.8307 14.4879 36.2289 14.5623 34.654 13.8465C33.0792 13.1308 32.3444 13.7932 32.737 15.8914C32.737 15.8914 29.8889 18.0541 31.0388 20.4035C31.0388 20.4035 28.6534 21.2442 29.9604 24.3305C29.9604 24.3305 27.5764 26.1816 28.8231 28.044C28.8231 28.044 25.6972 27.7788 27.488 29.6987C27.488 29.6987 25.1882 30.1029 27.3184 31.8362C27.3184 31.8362 25.4196 31.3506 25.9735 32.6965C19.4806 26.7346 12.4942 17.5096 10.8506 4.59345C10.8506 4.59345 10.1228 8.79123 10.3598 10.6564C10.3598 10.6564 8.0992 6.77585 7.42747 1.99844C7.42747 1.99844 7.55368 6.46709 8.78775 10.9526C8.78775 10.9526 5.82599 6.53024 5.52589 2.43071C5.52589 2.43071 4.34371 3.30788 4.57931 4.66784C4.57931 4.66784 1.14496 5.705 3.11666 10.0333C3.11666 10.0333 -0.864603 9.24596 2.29208 14.7181C2.29208 14.7181 -2.29079 13.9125 1.50396 18.1973C1.50396 18.1973 -0.607974 19.6976 1.7059 21.7719C1.7059 21.7719 -0.481763 24.6715 2.57115 26.5886C2.57115 26.5886 1.5853 28.5142 3.95807 30.2966C3.95807 30.2966 3.06898 32.2418 5.49784 33.2271C5.49784 33.2271 4.84155 35.0165 6.35748 35.5175C6.35748 35.5175 6.15414 37.0599 7.55228 37.4712C7.55228 37.4712 6.94787 39.1694 8.60544 39.2957C8.60544 39.2957 8.24504 40.4367 10.3037 40.5742C10.3037 40.5742 10.2686 42.1152 11.8855 41.7616C11.8855 41.7616 12.9275 44.3243 15.6817 43.6562C15.6817 43.6562 16.8905 46.0492 19.6587 44.9811C19.6587 44.9811 21.8015 48.0982 26.7041 46.7776C26.7041 46.7776 21.486 51.4006 20.2632 54.1879C16.3843 56.1135 10.852 58.5878 9.97413 59.6263C9.09626 60.6649 7.08109 62.3533 8.85506 62.9062C8.85506 62.9062 5.41791 65.323 8.66574 65.2248C8.66574 65.2248 5.38566 68.5482 9.96432 67.1644C9.96432 67.1644 8.97566 70.4696 12.4773 68.0654C12.4773 68.0654 19.5564 67.6472 25.3803 56.5471C25.3803 56.5471 25.7477 58.4376 23.7872 61.5505C23.7872 61.5505 38.1711 63.9911 46.9863 53.0777C54.4566 42.8408 55.3611 36.8929 62.8426 39.7195C62.8426 39.7167 60.3647 25.6946 46.7605 36.3343Z" fill="url(#paint0_linear_919_9294)"/>
<path d="M48.7069 41.2971C48.7069 41.2971 42.9321 51.4653 31.9685 56.2315C31.9685 56.2315 43.0962 54.7297 48.7069 41.2971Z" fill="white"/>
<path d="M69.1127 43.0259C71.4061 42.6849 73.6981 42.3439 76 42C75.9929 42.0354 75.9887 42.0608 75.9816 42.0849C75.9107 42.3184 75.7888 42.5221 75.623 42.699C75.6045 42.7188 75.5847 42.7372 75.5663 42.757C72.6251 45.6932 69.6839 48.6294 66.7428 51.567C66.5557 51.7538 66.3402 51.8953 66.0865 51.9759C66.0582 51.9844 66.0284 51.9929 66.0001 52C65.9916 51.9335 66.9795 45.2744 67.0192 45.1244C67.0461 45.1201 67.0745 45.1131 67.1042 45.1088C67.3239 45.0763 67.5436 45.0437 67.7619 45.0112C68.3884 44.9164 68.9029 44.4013 68.9993 43.7759C69.0333 43.5565 69.0645 43.3372 69.0985 43.1193C69.1 43.0896 69.1056 43.0613 69.1127 43.0259Z" fill="black"/>
<path d="M59 45C59.0705 44.8371 59.1615 44.7049 59.2702 44.5846C59.2892 44.564 59.3098 44.5449 59.3289 44.5244C62.396 41.4577 65.4631 38.3911 68.5287 35.3244C68.6462 35.207 68.7783 35.1101 68.9251 35.0338C68.9471 35.022 68.9692 35.0132 69 35C68.9971 35.0352 68.9971 35.0617 68.9927 35.0881C68.5904 37.7819 68.1881 40.4756 67.7887 43.1694C67.7461 43.4557 67.454 43.7449 67.1618 43.7874C64.7275 44.1456 62.2961 44.5112 59.8618 44.8737C59.6093 44.9119 59.3582 44.9486 59.1057 44.9868C59.0763 44.9912 59.047 44.9941 59 45Z" fill="black"/>
<path d="M75.9985 40.9298C73.6681 41.287 71.3392 41.6428 69 42C69.3409 39.6606 69.6788 37.3333 70.0183 35C70.0462 35.0015 70.0697 35 70.0932 35.003C70.4311 35.0588 70.7265 35.208 70.9689 35.4552C72.5147 37.0394 74.0605 38.6251 75.6047 40.2108C75.7811 40.3917 75.906 40.6057 75.9868 40.8484C75.9912 40.8635 75.9956 40.8786 76 40.8936C76 40.9027 75.9985 40.9087 75.9985 40.9298Z" fill="black"/>
<path d="M64.9285 52C64.7718 51.9648 64.6362 51.906 64.5111 51.8253C64.4101 51.7607 64.3107 51.6902 64.2263 51.608C62.6349 50.0606 61.0465 48.5132 59.4566 46.9643C59.2095 46.7236 59.0648 46.4329 59.006 46.0982C59.0015 46.0747 59.0015 46.0497 59 46.0174C61.3328 45.6783 63.6596 45.3406 66 45C65.6413 47.3417 65.2842 49.6672 64.9285 52Z" fill="black"/>
<path d="M56.1366 37.0236C56.7469 37.0236 57.2417 36.5285 57.2417 35.9177C57.2417 35.3069 56.7469 34.8118 56.1366 34.8118C55.5263 34.8118 55.0316 35.3069 55.0316 35.9177C55.0316 36.5285 55.5263 37.0236 56.1366 37.0236Z" fill="black"/>
<path d="M56.3592 36.538C56.6447 36.538 56.8762 36.3065 56.8762 36.021C56.8762 35.7354 56.6447 35.5039 56.3592 35.5039C56.0736 35.5039 55.8421 35.7354 55.8421 36.021C55.8421 36.3065 56.0736 36.538 56.3592 36.538Z" fill="white"/>
<defs>
<linearGradient id="paint0_linear_919_9294" x1="3.62006" y1="-8.34712e-05" x2="45.6734" y2="55.3242" gradientUnits="userSpaceOnUse">
<stop stop-color="#E8A490"/>
<stop offset="1" stop-color="#DE3300"/>
</linearGradient>
</defs>
</svg> -->


<svg width="46" height="56" viewBox="0 0 46 56" fill="none" xmlns="http://www.w3.org/2000/svg">
<path d="M20.6684 21.2444C21.5334 21.2444 22.2347 20.5442 22.2347 19.6804C22.2347 18.8167 21.5334 18.1165 20.6684 18.1165C19.8033 18.1165 19.1021 18.8167 19.1021 19.6804C19.1021 20.5442 19.8033 21.2444 20.6684 21.2444Z" fill="#F15223"/>
<path d="M43.539 21.2444C44.404 21.2444 45.1053 20.5442 45.1053 19.6804C45.1053 18.8167 44.404 18.1165 43.539 18.1165C42.6739 18.1165 41.9727 18.8167 41.9727 19.6804C41.9727 20.5442 42.6739 21.2444 43.539 21.2444Z" fill="#F15223"/>
<path d="M38.5786 30.594C38.933 29.8893 39.1961 29.2155 39.3911 28.5849C40.9976 22.6583 37.944 21.5549 35.771 21.4683L34.3316 21.5889L34.3811 21.5363H34.3827L35.8329 20.0157L40.3027 15.3346L40.2996 15.3516L40.4141 15.2326C39.0908 10.5856 36.1363 6.62623 32.2082 4.00831C29.0121 1.8741 25.1707 0.631592 21.0383 0.631592C18.7121 0.631592 16.4772 1.02567 14.3986 1.75047C7.14597 4.27721 1.78468 10.8267 0.995346 18.7221C0.928795 19.3882 0.894745 20.062 0.894745 20.7451V55.3684C7.03144 54.0888 12.0677 49.8142 14.3986 44.1441V20.6075C14.3986 17.1582 17.1968 14.3641 20.6513 14.3641C21.874 14.3641 23.0147 14.7134 23.9774 15.3192C24.0672 15.3748 24.1554 15.4335 24.2405 15.4938C24.42 15.619 24.5918 15.7534 24.7559 15.8971C25.0515 16.1537 25.3239 16.4396 25.5684 16.7471L25.5715 16.7518L30.1311 21.5255L30.1899 21.5873L28.7521 21.4668C28.1237 21.4915 27.4257 21.5935 26.7788 21.8562C25.5762 22.3461 24.5562 23.3908 24.5191 25.5158C24.5067 26.1865 24.5934 26.9654 24.8023 27.8679C25.002 28.6962 25.3208 29.6157 25.813 30.5924C27.0156 32.7266 28.5973 34.6182 30.467 36.1791C30.9963 36.6133 31.5705 37.0445 32.1958 37.4741C32.821 37.0461 33.3952 36.6133 33.9246 36.1791C35.7942 34.6182 37.376 32.7266 38.5786 30.594Z" fill="#F15223"/>
</svg>
