<svg width="76" height="69" viewBox="0 0 76 69" fill="none" xmlns="http://www.w3.org/2000/svg">
<path d="M46.5186 36.7719C46.343 36.6749 46.2425 36.4824 46.2631 36.2829L46.7605 36.3343C46.2631 36.2829 46.2632 36.2827 46.2632 36.2825L46.2633 36.2819L46.2634 36.2801L46.264 36.2746L46.2662 36.2553C46.2681 36.2386 46.271 36.2145 46.2749 36.1826C46.2829 36.1188 46.2954 36.0242 46.3139 35.8973C46.3509 35.6433 46.4119 35.2597 46.5085 34.734C46.7017 33.6826 47.0375 32.0625 47.6096 29.774C48.7532 25.1988 50.8416 17.9498 54.6232 7.23023C54.9175 6.24269 55.154 5.32203 55.3013 4.5374C55.4516 3.73692 55.4997 3.12361 55.4467 2.73336C55.4216 2.54838 55.38 2.46436 55.3595 2.43544C55.3577 2.43542 55.3555 2.43544 55.3531 2.43551C55.2988 2.43723 55.1689 2.46598 54.9414 2.60094C54.7231 2.73042 54.4499 2.93666 54.1156 3.23958C53.6488 3.72172 53.258 4.42266 52.9381 5.23923C52.6181 6.05618 52.3815 6.9566 52.2085 7.80107C52.0358 8.64403 51.9286 9.42124 51.8647 9.98806C51.8327 10.2711 51.8117 10.5009 51.7986 10.6591C51.7921 10.7382 51.7876 10.7994 51.7848 10.8403L51.7817 10.8863L51.781 10.8974L51.7808 10.8998L51.7808 10.9002L46.5186 36.7719ZM46.5186 36.7719C46.694 36.869 46.9106 36.8517 47.0685 36.7282C50.4291 34.0999 53.0436 33.0427 55.0548 32.8725C57.0428 32.7042 58.492 33.398 59.5611 34.4007C60.6446 35.4169 61.3454 36.7604 61.7766 37.8738C61.9326 38.2766 62.0516 38.6447 62.1396 38.9495M46.5186 36.7719L62.1396 38.9495M62.1396 38.9495C60.6078 38.479 59.3075 38.391 58.1356 38.6903C56.7442 39.0455 55.6142 39.9262 54.5327 41.172C53.4566 42.4115 52.3891 44.0599 51.1424 46.0045C51.0842 46.0952 51.0255 46.1867 50.9665 46.2788C49.7553 48.1687 48.3573 50.35 46.5896 52.7731C42.2846 58.097 36.619 60.1719 32.0018 60.913C29.6925 61.2836 27.653 61.319 26.1921 61.2617C25.537 61.236 24.9992 61.1917 24.6066 61.1509C25.338 59.8445 25.6696 58.7658 25.8112 57.969C25.8937 57.5055 25.9114 57.1397 25.907 56.8827C25.9049 56.7543 25.8972 56.6533 25.8894 56.5809C25.8855 56.5448 25.8816 56.5158 25.8783 56.4942C25.8767 56.4834 25.8752 56.4745 25.874 56.4674L25.8723 56.4582L25.8717 56.4546L25.8714 56.4531L25.8713 56.4524C25.8712 56.4521 25.8711 56.4517 25.3803 56.5471L25.8711 56.4517C25.8306 56.2433 25.6629 56.0832 25.4529 56.0524C25.2428 56.0216 25.0362 56.1268 24.9376 56.3148C22.0649 61.7898 18.901 64.5984 16.4884 66.0395C15.2802 66.7613 14.2544 67.1437 13.5388 67.3454C13.1809 67.4462 12.9003 67.5019 12.7131 67.5322C12.6195 67.5473 12.5493 67.556 12.5044 67.5609C12.4819 67.5633 12.4658 67.5648 12.4563 67.5656L12.4478 67.5663L12.4472 67.5663C12.447 67.5663 12.4469 67.5663 12.4468 67.5663C12.4467 67.5663 12.4467 67.5664 12.4466 67.5664C12.3562 67.5719 12.269 67.6019 12.1943 67.6532C11.3329 68.2446 10.8316 68.4218 10.5722 68.4401C10.4599 68.448 10.4253 68.4239 10.4231 68.4224L10.423 68.4223C10.4196 68.42 10.3995 68.4062 10.3778 68.3461C10.326 68.2033 10.3242 67.9677 10.3598 67.7123C10.3761 67.5951 10.3978 67.491 10.4153 67.4164C10.4241 67.3794 10.4316 67.3504 10.4367 67.3314L10.4424 67.311L10.4433 67.3077C10.4434 67.3076 10.4434 67.3075 10.4434 67.3074M62.1396 38.9495L9.96432 67.1644C10.4433 67.3077 10.4434 67.3075 10.4434 67.3074M10.4434 67.3074C10.4435 67.3072 10.4435 67.307 10.4436 67.3069C10.4959 67.1308 10.4475 66.9401 10.3174 66.8103C10.187 66.6804 9.99584 66.6325 9.81966 66.6858C9.26309 66.854 8.84395 66.945 8.53473 66.9819C8.27217 67.0132 8.11795 67.0017 8.03647 66.9844C8.04193 66.9608 8.05096 66.9296 8.06597 66.8897C8.15936 66.6416 8.38117 66.3224 8.61258 66.0381C8.72301 65.9024 8.8266 65.7854 8.90248 65.7026C8.94031 65.6613 8.97095 65.6288 8.99175 65.607L9.01514 65.5826L9.02062 65.577L9.02161 65.576M10.4434 67.3074L9.02161 65.576M9.02161 65.576L9.02169 65.5759L9.0218 65.5758M9.02161 65.576L9.0218 65.5758M9.0218 65.5758C9.16524 65.4304 9.20573 65.2123 9.12409 65.025C9.04241 64.8376 8.85492 64.7188 8.65063 64.725C8.26794 64.7366 8.01968 64.7093 7.86784 64.6696C7.83521 64.6611 7.80972 64.6527 7.79007 64.6452C7.81482 64.5881 7.86167 64.5079 7.93943 64.4064C8.13122 64.1559 8.4245 63.8856 8.68784 63.6673C8.81624 63.5608 8.93142 63.4718 9.01418 63.4095C9.05548 63.3785 9.08848 63.3543 9.11074 63.3382L9.13572 63.3202L9.14156 63.316L9.14265 63.3153L9.14271 63.3152L9.14278 63.3152C9.29853 63.2056 9.3785 63.017 9.34904 62.8289C9.31957 62.6407 9.18572 62.4856 9.00386 62.4289C8.82539 62.3733 8.7343 62.3151 8.6913 62.2766C8.65571 62.2447 8.65173 62.2264 8.64968 62.2153C8.63948 62.1604 8.65918 62.0066 8.84304 61.7152C9.01378 61.4445 9.26675 61.1464 9.54936 60.8356C9.63923 60.7368 9.73406 60.6347 9.82895 60.5326C10.0171 60.33 10.2055 60.1272 10.356 59.9491C10.4234 59.8694 10.5633 59.7467 10.7968 59.5824C11.0234 59.4231 11.3132 59.2417 11.6578 59.0416C12.3468 58.6414 13.2308 58.1801 14.2169 57.6869C15.2019 57.1943 16.2812 56.6736 17.3594 56.1544L17.5538 56.0609C18.5654 55.5739 19.571 55.0897 20.4855 54.6357C20.5905 54.5836 20.6739 54.4962 20.721 54.3888C21.0001 53.7526 21.5228 52.9817 22.1757 52.1667C22.8236 51.358 23.5788 50.5311 24.3013 49.7854C25.023 49.0405 25.7075 48.3813 26.2118 47.9081C26.4638 47.6716 26.6705 47.4819 26.8138 47.3517C26.8855 47.2865 26.9413 47.2362 26.979 47.2024L27.0218 47.1642L27.0325 47.1547L27.035 47.1524L27.0356 47.1519L27.0357 47.1518C27.2094 46.9979 27.2544 46.7448 27.1443 46.5405C27.0343 46.3362 26.7981 46.2344 26.5741 46.2948C24.2491 46.9211 22.6183 46.4896 21.5787 45.9337C21.0533 45.6527 20.6698 45.3348 20.4199 45.0902C20.2951 44.968 20.2041 44.8647 20.1461 44.7944C20.1171 44.7592 20.0964 44.7324 20.0839 44.7157L20.0712 44.6985L20.0708 44.6979C20.0707 44.6977 20.0706 44.6976 20.0704 44.6974C20.0704 44.6973 20.0703 44.6971 20.0702 44.697C20.07 44.6968 20.0699 44.6966 20.0698 44.6964C20.0697 44.6963 20.0697 44.6963 20.0696 44.6962C19.9382 44.5067 19.6941 44.4316 19.4788 44.5146C18.2654 44.9828 17.447 44.6882 16.9234 44.3128C16.6507 44.1173 16.4479 43.8913 16.313 43.7124C16.2461 43.6237 16.1974 43.5485 16.1664 43.4975C16.151 43.4721 16.1401 43.4529 16.1337 43.4413L16.128 43.4308L16.1277 43.4303C16.1277 43.4303 16.1277 43.4302 16.1276 43.4301C16.1276 43.43 16.1275 43.4299 16.1275 43.4298C16.1273 43.4295 16.1272 43.4293 16.1271 43.429C16.127 43.4289 16.127 43.4288 16.1269 43.4288C16.0217 43.2228 15.7888 43.1158 15.5638 43.1703C14.3772 43.4582 13.5943 43.0568 13.0896 42.5917C12.8298 42.3524 12.6414 42.0923 12.5178 41.8905C12.4564 41.7902 12.4122 41.7063 12.3842 41.6495C12.3703 41.6211 12.3604 41.5996 12.3545 41.5864L12.3487 41.5732L12.3487 41.5731L12.3485 41.5728C12.2568 41.3477 12.0163 41.2211 11.7787 41.2731C11.4476 41.3455 11.2565 41.3094 11.1509 41.2647C11.0481 41.2213 10.9772 41.1492 10.9232 41.0539C10.866 40.953 10.8337 40.8347 10.8173 40.7314C10.8095 40.6817 10.8061 40.6404 10.8046 40.6133C10.8039 40.5998 10.8037 40.5902 10.8036 40.5853C10.8036 40.5828 10.8036 40.5816 10.8036 40.5816L10.8036 40.5826L10.8036 40.5838L10.8036 40.5845M9.0218 65.5758L4.41282 30.5045C4.41331 30.5034 4.41381 30.5023 4.41429 30.5012C4.50982 30.2882 4.44526 30.0372 4.25837 29.8968C3.18104 29.0876 2.91283 28.2903 2.87356 27.7387C2.85317 27.4524 2.89323 27.2121 2.93742 27.0457C2.95945 26.9628 2.98217 26.8995 2.99803 26.8596C3.00594 26.8397 3.01207 26.8258 3.01545 26.8185L3.01792 26.8131L3.01723 26.8145L3.01683 26.8153M10.8036 40.5845C10.8091 40.3174 10.6036 40.0932 10.337 40.0753C9.38814 40.0119 9.16957 39.7308 9.12014 39.6414C9.08841 39.584 9.08058 39.5281 9.08124 39.4835C9.08157 39.4614 9.08404 39.4446 9.0856 39.4361C9.08584 39.4348 9.08605 39.4338 9.08621 39.433C9.12675 39.2911 9.10258 39.1383 9.01969 39.0157C8.93421 38.8892 8.79564 38.8087 8.64344 38.7971C8.3179 38.7723 8.16821 38.677 8.09569 38.6043C8.0197 38.5281 7.97197 38.4197 7.95326 38.2729C7.93424 38.1235 7.94973 37.964 7.97488 37.8322C7.98704 37.7685 8.00049 37.7162 8.01044 37.6813C8.01538 37.6639 8.01937 37.6511 8.02175 37.6438L8.02334 37.6388L8.02347 37.6384C8.02366 37.6379 8.02384 37.6374 8.02402 37.6369C8.06932 37.5079 8.05986 37.3659 7.99775 37.2441C7.93532 37.1216 7.82523 37.0303 7.69336 36.9915C7.2008 36.8466 7.00195 36.5223 6.91161 36.2037C6.86452 36.0377 6.8497 35.8769 6.84747 35.7557C6.84637 35.696 6.84836 35.6483 6.8504 35.6174C6.85141 35.6021 6.85242 35.5911 6.85302 35.5851L6.85325 35.5824C6.85329 35.5821 6.85333 35.5818 6.85337 35.5815L6.85339 35.5814C6.85345 35.5809 6.8535 35.5805 6.85356 35.58C6.88344 35.3431 6.74144 35.1178 6.51439 35.0428C6.23774 34.9513 6.09128 34.8146 6.00541 34.6798C5.91398 34.5361 5.86844 34.3575 5.85857 34.1595C5.84872 33.9619 5.87571 33.7685 5.90776 33.6198C5.92349 33.5468 5.93972 33.4879 5.95148 33.4487C5.95734 33.4292 5.96203 33.4148 5.96489 33.4063L5.96727 33.3992L5.9674 33.3989C5.9675 33.3986 5.96761 33.3983 5.96771 33.398C5.96776 33.3979 5.96781 33.3978 5.96785 33.3976C6.05956 33.145 5.93505 32.8648 5.68579 32.7637C4.62439 32.3332 4.36846 31.7437 4.31274 31.3262C4.28207 31.0965 4.30837 30.8848 4.34442 30.7278C4.36222 30.6503 4.38172 30.5891 4.39579 30.5494C4.4028 30.5297 4.40836 30.5156 4.41154 30.5078L4.41418 30.5014L4.41365 30.5026L4.41327 30.5035L4.41306 30.5039C4.41294 30.5042 4.41282 30.5045 3.95807 30.2966C1.5853 28.5142 2.57115 26.5886 2.57115 26.5886M10.8036 40.5845C10.8036 40.5847 10.8036 40.5849 10.8036 40.5851L10.8036 40.5846L10.8036 40.5845ZM2.57115 26.5886L3.01621 26.8165C3.0163 26.8163 3.0164 26.8161 3.0165 26.8159C3.01635 26.8162 3.01621 26.8165 2.57115 26.5886ZM2.57115 26.5886C-0.481763 24.6715 1.7059 21.7719 1.7059 21.7719M1.7059 21.7719L2.10504 22.0731M1.7059 21.7719C-0.0797753 20.1711 0.770383 18.9122 1.25157 18.4208L2.1053 22.0727M1.7059 21.7719C2.10504 22.0731 2.10518 22.0729 2.1053 22.0727M2.10504 22.0731L2.10361 22.075L2.09095 22.0928C2.07904 22.1097 2.0606 22.1365 2.03734 22.1724C1.99073 22.2442 1.92544 22.3513 1.85511 22.4862C1.71308 22.7585 1.55769 23.1304 1.4865 23.5458C1.41578 23.9585 1.42994 24.4012 1.60996 24.8359C1.78863 25.2674 2.14773 25.7323 2.83705 26.1652C3.05532 26.3023 3.13345 26.5826 3.01818 26.8126C3.01773 26.8135 3.01728 26.8144 3.01683 26.8153M2.10504 22.0731L2.1053 22.0727M2.10504 22.0731C2.10513 22.073 2.10522 22.0728 2.1053 22.0727M3.01683 26.8153C3.01674 26.8155 3.01666 26.8156 3.01657 26.8158L3.01676 26.8154L3.01683 26.8153ZM1.79439 18.6043L1.79437 18.6043L1.79427 18.6044C1.79431 18.6044 1.79435 18.6043 1.79439 18.6043ZM1.79439 18.6043C1.79481 18.604 1.79522 18.6037 1.79564 18.6034C1.91014 18.5212 1.98464 18.3944 2.00071 18.2542C2.01687 18.1133 1.97236 17.972 1.87827 17.8658C0.940449 16.8069 0.593495 16.1382 0.516735 15.7492C0.481415 15.5702 0.509598 15.4826 0.53045 15.442C0.552609 15.3988 0.59796 15.3482 0.697802 15.2985C0.919192 15.1883 1.26999 15.1508 1.62373 15.159C1.78997 15.1629 1.93839 15.1762 2.04503 15.1885C2.09808 15.1947 2.14009 15.2005 2.16798 15.2047L2.19867 15.2094L2.20522 15.2105L2.20551 15.2105C2.20562 15.2106 2.20573 15.2106 2.20583 15.2106C2.20589 15.2106 2.20595 15.2106 2.20602 15.2106C2.39715 15.244 2.59038 15.1638 2.70168 15.0048C2.81307 14.8457 2.82224 14.6365 2.72518 14.4682C1.95011 13.1246 1.64686 12.2199 1.58663 11.627C1.52898 11.0593 1.69432 10.8265 1.83555 10.712C2.01148 10.5693 2.27985 10.5056 2.56194 10.4955C2.69501 10.4907 2.81397 10.4984 2.89926 10.5074C2.94153 10.5119 2.9745 10.5165 2.99562 10.5198L3.01777 10.5235L3.0206 10.524L3.02017 10.5239C3.01992 10.5239 3.01966 10.5238 3.11666 10.0333M1.79439 18.6043L1.9928 14.1783C0.0664243 10.5488 1.62776 10.0254 2.55403 9.99544C2.58812 10.0762 2.62398 10.1579 2.66165 10.2406L3.11666 10.0333M3.11666 10.0333C3.21366 9.54281 3.21336 9.54275 3.21305 9.54269L3.21235 9.54255L3.21066 9.54222L3.20618 9.54137L3.19289 9.53894C3.18216 9.53703 3.16768 9.53457 3.14982 9.53178C3.11415 9.52621 3.06468 9.51931 3.00425 9.51293C2.97136 9.50945 2.93492 9.50611 2.89543 9.50322C1.42845 5.61939 4.57931 4.66784 4.57931 4.66784M3.11666 10.0333L3.01966 10.5238C3.0202 10.5239 3.02074 10.524 3.02128 10.5241C3.20472 10.5598 3.39279 10.4901 3.50879 10.3435C3.62513 10.1965 3.64941 9.99667 3.57167 9.82603C2.64573 7.7934 3.02816 6.65565 3.50575 6.03122C3.75985 5.69899 4.06906 5.47463 4.31986 5.33262C4.44431 5.26215 4.55127 5.21373 4.62478 5.18368C4.66143 5.1687 4.68942 5.15843 4.7067 5.15237L4.7242 5.14642C4.72513 5.14611 4.72577 5.14591 4.7261 5.14581M4.57931 4.66784L4.72386 5.14649C4.72461 5.14626 4.72535 5.14603 4.7261 5.14581M4.57931 4.66784C4.44635 3.90038 4.76491 3.28667 5.06772 2.89758L4.57931 4.66784ZM4.7261 5.14581C4.96665 5.07195 5.11496 4.83067 5.07197 4.58249C5.01255 4.23947 5.07127 3.93362 5.18293 3.67218M4.7261 5.14581L5.18293 3.67218M5.18293 3.67218C5.49904 5.41275 6.17833 7.11368 6.81874 8.44563C7.21507 9.26995 7.60171 9.96349 7.88963 10.4516C8.03369 10.6958 8.15328 10.889 8.23736 11.0219C8.27941 11.0883 8.3126 11.1398 8.33555 11.175L8.36212 11.2155L8.36933 11.2263L8.37136 11.2294L8.37197 11.2303L8.37217 11.2306C8.37225 11.2307 8.37231 11.2308 8.78775 10.9526L8.37231 11.2308C8.50878 11.4346 8.77288 11.5093 8.99587 11.4072C9.21885 11.3051 9.33489 11.0564 9.26984 10.8199C9.03709 9.97396 8.84415 9.12773 8.68434 8.31213C9.0142 9.10846 9.32301 9.75388 9.55016 10.2017C9.66386 10.4258 9.75721 10.6006 9.82264 10.7203C9.85535 10.7801 9.8811 10.8261 9.89893 10.8577L9.91962 10.8941L9.9253 10.9039L9.92693 10.9067L9.92744 10.9076L9.92761 10.9079C9.92768 10.908 9.92774 10.9081 10.3598 10.6564L9.92774 10.9081C10.0474 11.1136 10.2952 11.2063 10.5203 11.13C10.7455 11.0536 10.8858 10.8293 10.8558 10.5934C10.7739 9.94865 10.8166 8.97215 10.9073 7.98184C13.2435 19.324 19.6572 27.5756 25.6353 33.0648C25.8079 33.2233 26.0674 33.2407 26.2596 33.1066C26.4518 32.9725 26.5251 32.7229 26.4359 32.5063C26.3881 32.3901 26.3752 32.3207 26.3727 32.2841C26.3946 32.2761 26.4329 32.2656 26.4956 32.2584C26.6363 32.2421 26.8075 32.2543 26.9588 32.2762C27.0312 32.2867 27.0927 32.2984 27.1353 32.3074C27.1566 32.3118 27.1728 32.3155 27.1831 32.3179L27.1937 32.3205L27.1945 32.3206L27.1947 32.3207C27.1948 32.3207 27.1949 32.3207 27.195 32.3208C27.4223 32.3786 27.6593 32.2707 27.7649 32.0612C27.8705 31.8515 27.816 31.5966 27.6339 31.4484C27.1277 31.0364 26.9662 30.7651 26.9254 30.6282C26.9008 30.5458 26.9149 30.5154 26.963 30.4659C27.0379 30.3888 27.1733 30.3157 27.3298 30.26C27.4017 30.2343 27.4666 30.2164 27.5127 30.205C27.5356 30.1994 27.5533 30.1956 27.5642 30.1933L27.5746 30.1912L27.575 30.1911C27.5754 30.191 27.5758 30.191 27.5762 30.1909C27.7561 30.1587 27.9041 30.0309 27.9622 29.8575C28.0204 29.6836 27.9788 29.4918 27.8537 29.3577C27.4826 28.9598 27.4401 28.7675 27.435 28.7231C27.4517 28.7065 27.5015 28.6697 27.6327 28.6288C27.8438 28.563 28.1227 28.5373 28.3723 28.5325C28.4924 28.5302 28.597 28.5328 28.6709 28.5359C28.7078 28.5375 28.7366 28.5392 28.7557 28.5405L28.7764 28.5419L28.7808 28.5423H28.7808C28.7809 28.5423 28.781 28.5423 28.781 28.5423C28.7809 28.5423 28.7808 28.5423 28.8231 28.044L5.18293 3.67218ZM30.267 24.7254C30.2672 24.7252 30.2674 24.7251 30.2676 24.7249C30.4462 24.5858 30.5091 24.344 30.4208 24.1355C29.8245 22.7274 30.0999 21.9358 30.414 21.5036C30.5833 21.2705 30.7871 21.1099 30.9515 21.0071C31.033 20.9562 31.1024 20.921 31.1489 20.8994C31.1721 20.8887 31.1893 20.8815 31.1992 20.8775L31.2082 20.874L30.267 24.7254ZM33.0394 16.2896L33.0396 16.2894L33.0396 16.2894C33.1902 16.1749 33.2633 15.9853 33.2285 15.7994C33.1355 15.3024 33.1155 14.9206 33.1464 14.641C33.1776 14.3593 33.2551 14.2247 33.3149 14.1636C33.4003 14.0764 33.6783 13.9523 34.4471 14.3017C34.8174 14.47 34.9864 14.5798 35.1078 14.6764C35.1728 14.7282 35.2307 14.7813 35.309 14.854L35.3173 14.8617C35.3924 14.9314 35.4823 15.0148 35.5969 15.111C36.0761 15.5133 36.9405 16.1007 39.2911 17.2748C39.5249 17.3916 39.8092 17.3086 39.9435 17.0845C40.0778 16.8603 40.0168 16.5705 39.8035 16.4195C36.5236 14.0967 36.0005 12.1758 36.1392 10.9416C36.2107 10.3057 36.4621 9.79188 36.7021 9.43187C37.9309 11.8301 39.4979 13.3818 40.8075 14.3497C41.5238 14.8791 42.1624 15.2333 42.6259 15.4565C42.8577 15.5682 43.046 15.6472 43.1787 15.699C43.2451 15.725 43.2976 15.7441 43.3347 15.7572C43.3533 15.7637 43.368 15.7687 43.3787 15.7722L43.3917 15.7765L43.3959 15.7779L43.3974 15.7784L43.398 15.7786C43.3983 15.7786 43.3985 15.7787 43.5491 15.3019L43.3985 15.7787C43.6198 15.8486 43.8601 15.7571 43.9788 15.5576C44.0975 15.3582 44.0633 15.1033 43.8964 14.9422C41.4284 12.5603 40.0715 10.4785 39.5148 8.78815C38.9614 7.10791 39.2055 5.85317 39.8767 5.01559C40.2845 4.50672 40.5706 4.15028 40.7905 3.91729C40.8438 3.86089 40.8889 3.81634 40.9269 3.78147C40.9277 3.78295 40.9285 3.78444 40.9293 3.78595C41.0352 3.99036 41.1548 4.3103 41.3332 4.79434C41.7136 6.67159 42.6645 8.14945 43.5105 9.15252C43.9376 9.65901 44.342 10.0493 44.6412 10.3142C44.791 10.4468 44.9149 10.5484 45.0026 10.6178C45.0465 10.6525 45.0815 10.6792 45.1061 10.6977L45.1353 10.7194L45.1438 10.7256L45.1465 10.7276L45.1475 10.7283L45.1478 10.7286C45.148 10.7287 45.1482 10.7288 45.4395 10.3224L45.1482 10.7288C45.3435 10.8689 45.611 10.8501 45.7848 10.684C45.9587 10.518 45.9897 10.2517 45.8588 10.0501C44.56 8.05058 44.1112 6.05409 44.0588 4.43069C44.0059 2.7869 44.3596 1.56935 44.6094 1.12957L44.6095 1.12933C44.7597 0.864447 45.0861 0.76468 45.4249 0.966016C45.7484 1.15828 46.1353 1.69781 46.0114 2.79038C45.7088 4.60891 46.0805 6.25394 46.5186 7.43328C46.7388 8.02613 46.978 8.5074 47.1633 8.84215C47.256 9.00972 47.3355 9.14112 47.3928 9.23203C47.4214 9.2775 47.4446 9.31288 47.461 9.33764L47.4807 9.36677L47.4865 9.37524L47.4883 9.37793L47.489 9.37889L47.4893 9.37927C47.4894 9.37943 47.4895 9.37959 47.8992 9.09298L47.4895 9.37959C47.6365 9.58974 47.9187 9.65459 48.1427 9.52968C48.3655 9.40547 48.4588 9.13369 48.3601 8.89905L33.0394 16.2896ZM48.3587 8.89595L48.3588 8.89619L48.3592 8.89711L48.3576 8.8928C48.3546 8.88494 48.349 8.86986 48.3413 8.84724C48.326 8.80202 48.3024 8.7266 48.275 8.61842C48.22 8.4021 48.1491 8.05447 48.0969 7.55505C47.9935 6.56605 47.963 4.98186 48.273 2.64459C48.5491 2.03103 48.7996 1.56679 49.0236 1.22577C49.2587 0.86799 49.4487 0.670729 49.5866 0.57301C49.653 0.525997 49.6974 0.50915 49.7204 0.503308C49.7395 0.498435 49.7465 0.500271 49.7481 0.500672L49.7482 0.500716C49.7533 0.501951 49.8121 0.519964 49.9056 0.653912C50.0988 0.930851 50.2687 1.45704 50.3775 2.13055C50.4801 2.76512 50.5186 3.46565 50.4969 4.07127C49.9979 5.86337 50.0765 7.59783 50.2757 8.87796C50.3768 9.52701 50.5097 10.0651 50.6181 10.4428C50.6723 10.6318 50.7205 10.7811 50.7557 10.8845C50.7733 10.9362 50.7876 10.9765 50.7978 11.0046L50.81 11.0375L50.8136 11.047L50.8147 11.0499L50.8151 11.0509L50.8152 11.0513L48.3587 8.89595ZM41.056 3.68174C41.056 3.68175 41.0555 3.68202 41.0545 3.68244L41.056 3.68174ZM27.4276 28.7325C27.4274 28.7325 27.428 28.7313 27.4297 28.7291C27.4286 28.7315 27.4278 28.7325 27.4276 28.7325ZM26.3744 32.2506C26.3746 32.2507 26.3743 32.2528 26.373 32.2566C26.3735 32.2524 26.3742 32.2505 26.3744 32.2506Z" stroke="black" stroke-linejoin="round"/>
<path d="M48.7069 41.2971C48.7069 41.2971 42.9321 51.4653 31.9685 56.2315C31.9685 56.2315 43.0961 54.7297 48.7069 41.2971Z" fill="white"/>
<path d="M69.5516 43.4661C71.351 43.1985 73.1501 42.9308 74.9541 42.6617C72.1862 45.4248 69.4183 48.1881 66.6504 50.9526C66.7418 50.3219 66.8632 49.4958 66.9861 48.6668C67.1115 47.8212 67.2384 46.9733 67.3363 46.3276C67.3833 46.0182 67.4235 45.7558 67.4537 45.5625C67.5813 45.5436 67.7087 45.5246 67.8356 45.5057L67.8367 45.5056C68.68 45.3779 69.3637 44.6931 69.4934 43.8525C69.5125 43.7294 69.5276 43.628 69.5424 43.5283C69.5454 43.5075 69.5485 43.4869 69.5516 43.4661ZM75.623 42.699C75.6137 42.7089 75.6042 42.7185 75.5946 42.728C75.585 42.7376 75.5755 42.7471 75.5663 42.757L75.623 42.699Z" fill="black" stroke="black"/>
<path d="M61.9961 44.0497C61.4141 44.1367 60.8321 44.2236 60.2501 44.3104C62.9385 41.6224 65.6268 38.9343 68.3142 36.2462C67.9733 38.5293 67.6327 40.8126 67.2942 43.0958C67.2926 43.1063 67.276 43.1563 67.2176 43.214C67.1597 43.2712 67.1067 43.2902 67.0897 43.2927L67.089 43.2928C65.3906 43.5427 63.6933 43.7962 61.9961 44.0497Z" fill="black" stroke="black"/>
<path d="M75.2292 40.5419C73.3521 40.8294 71.4751 41.1162 69.5921 41.4038C69.7866 40.0687 69.9802 38.737 70.1738 37.4053C70.2586 36.8217 70.3435 36.2381 70.4284 35.6542C70.4934 35.6965 70.5544 35.7467 70.6115 35.8049C72.1513 37.3829 73.691 38.9624 75.2292 40.5419Z" fill="black" stroke="black"/>
<path d="M61.732 46.1257C62.9545 45.9481 64.1774 45.7704 65.4035 45.5921C65.3413 45.9978 65.2792 46.4032 65.2171 46.8082C64.9915 48.2799 64.7665 49.7478 64.5421 51.2177C62.9619 49.6811 61.3845 48.1445 59.8055 46.6062C59.7482 46.5504 59.699 46.4909 59.6573 46.4271C60.3491 46.3266 61.0405 46.2261 61.732 46.1257Z" fill="black" stroke="black"/>
<path d="M56.1367 37.0236C56.747 37.0236 57.2417 36.5285 57.2417 35.9177C57.2417 35.3069 56.747 34.8118 56.1367 34.8118C55.5264 34.8118 55.0316 35.3069 55.0316 35.9177C55.0316 36.5285 55.5264 37.0236 56.1367 37.0236Z" fill="black"/>
<path d="M56.3592 36.538C56.6447 36.538 56.8762 36.3065 56.8762 36.021C56.8762 35.7354 56.6447 35.5039 56.3592 35.5039C56.0736 35.5039 55.8421 35.7354 55.8421 36.021C55.8421 36.3065 56.0736 36.538 56.3592 36.538Z" fill="white"/>
</svg>
