<svg width="281" height="251" viewBox="0 0 281 251" fill="none" xmlns="http://www.w3.org/2000/svg">
<g clip-path="url(#clip0_705_17986)">
<path d="M42.0818 124.563C43.5027 71.6659 87.0901 29.0737 140.482 29.0737C193.867 29.0737 237.462 71.6659 238.876 124.563H259.977C258.556 60.0646 205.503 8.03491 140.482 8.03491C75.4616 8.03491 22.4017 60.0646 20.9808 124.563H42.0818Z" fill="#F5F5F5"/>
<path d="M42.0818 124.563C43.5026 71.666 87.0901 29.0739 140.482 29.0739C193.867 29.0739 237.462 71.666 238.876 124.563H254.703C253.282 62.9615 202.591 13.293 140.482 13.293C78.367 13.293 27.6751 62.9615 26.2543 124.563H42.0818Z" fill="#EBEBEB"/>
<path d="M42.0818 124.563C43.5027 71.6659 87.0902 29.0738 140.482 29.0738C193.867 29.0738 237.462 71.6659 238.876 124.563H249.43C248.009 65.8653 199.685 18.5579 140.482 18.5579C81.2724 18.5579 32.9486 65.8653 31.5278 124.563H42.0818Z" fill="#FAFAFA"/>
<path d="M42.0818 124.563C43.5027 71.666 87.0901 29.0739 140.482 29.0739C193.867 29.0739 237.462 71.666 238.876 124.563H244.156C242.743 68.6776 196.872 23.8159 140.482 23.8159C84.0929 23.8159 38.215 68.6776 36.8012 124.563H42.0818Z" fill="#E0E0E0"/>
<path d="M190.651 208.358C187.117 204.834 190.298 198.843 193.832 198.139C197.367 197.434 200.922 191.231 201.085 187.284C201.255 183.337 207.617 171.193 217.513 178.693C227.41 186.192 224.398 179.799 231.559 177.692C238.72 175.584 243.237 181.646 240.092 186.192C240.092 186.192 247.281 184.395 250.243 191.09C253.205 197.786 250.243 201.945 250.243 201.945C250.243 201.945 263.766 201.543 262.55 209.888C261.341 218.226 190.651 208.358 190.651 208.358Z" fill="#E0E0E0"/>
<path d="M281.922 209.98V219.636H9.05826V209.98C9.05826 208.302 10.2317 206.949 11.9141 206.949H279.066C280.748 206.949 281.922 208.302 281.922 209.98Z" fill="#EBEBEB"/>
<path d="M34.1221 206.949H17.1565V219.636H34.1221V206.949Z" fill="#F5F5F5"/>
<path d="M65.9326 206.949H49.6739V219.636H65.9326V206.949Z" fill="#F5F5F5"/>
<path d="M98.4501 206.949H81.4844V219.636H98.4501V206.949Z" fill="#F5F5F5"/>
<path d="M130.261 206.949H114.002V219.636H130.261V206.949Z" fill="#F5F5F5"/>
<path d="M162.071 206.949H145.812V219.636H162.071V206.949Z" fill="#F5F5F5"/>
<path d="M194.588 206.949H177.623V219.636H194.588V206.949Z" fill="#F5F5F5"/>
<path d="M226.399 206.949H210.14V219.636H226.399V206.949Z" fill="#F5F5F5"/>
<path d="M258.916 206.949H241.951V219.636H258.916V206.949Z" fill="#F5F5F5"/>
<path d="M59.2548 139.942C59.2548 136.841 56.7382 134.332 53.6279 134.332C53.0694 134.332 52.5251 134.417 52.0091 134.572C52.0939 134.008 52.1363 133.437 52.1363 132.852C52.1363 126.29 46.7992 120.976 40.225 120.976C39.4757 120.976 38.7406 121.046 38.0337 121.18C36.2028 118.192 32.9086 116.19 29.1408 116.19C23.4362 116.19 18.806 120.757 18.7211 126.431C18.6646 126.431 18.608 126.424 18.5444 126.424C13.2427 126.424 8.9447 130.709 8.9447 135.995C8.9447 141.282 13.2427 145.567 18.5444 145.567H53.7905L53.7834 145.56C56.8231 145.461 59.2548 142.994 59.2548 139.942Z" fill="#E0E0E0"/>
<path d="M269.343 121.764C269.343 118.663 266.827 116.154 263.716 116.154C263.158 116.154 262.614 116.239 262.097 116.394C262.182 115.83 262.225 115.259 262.225 114.674C262.225 108.112 256.888 102.798 250.306 102.798C249.557 102.798 248.822 102.868 248.115 103.002C246.284 100.014 242.99 98.0121 239.222 98.0121C233.518 98.0121 228.887 102.579 228.802 108.253C228.746 108.253 228.689 108.246 228.626 108.246C223.324 108.246 219.026 112.531 219.026 117.817C219.026 123.104 223.324 127.389 228.626 127.389H263.872L263.865 127.382C266.904 127.276 269.343 124.809 269.343 121.764Z" fill="#E0E0E0"/>
<path d="M258.245 61.5659C258.245 59.5854 256.633 57.9854 254.654 57.9854C254.293 57.9854 253.947 58.0418 253.622 58.1405C253.671 57.781 253.7 57.4145 253.7 57.041C253.7 52.8544 250.292 49.4571 246.093 49.4571C245.613 49.4571 245.146 49.5065 244.694 49.5911C243.527 47.681 241.421 46.4053 239.017 46.4053C235.377 46.4053 232.422 49.3232 232.365 52.9389C232.33 52.9389 232.295 52.9319 232.252 52.9319C228.866 52.9319 226.123 55.6666 226.123 59.0427C226.123 62.4188 228.866 65.1535 232.252 65.1535H254.76L254.753 65.1464C256.69 65.09 258.245 63.5112 258.245 61.5659Z" fill="#E0E0E0"/>
<path d="M178.097 15.0972C178.097 13.1307 176.499 11.5308 174.52 11.5308C174.159 11.5308 173.82 11.5872 173.495 11.6788C173.544 11.3194 173.572 10.9528 173.572 10.5863C173.572 6.41382 170.179 3.03774 166.001 3.03774C165.528 3.03774 165.061 3.08707 164.609 3.1646C163.442 1.26864 161.35 -0.00708008 158.961 -0.00708008C155.334 -0.00708008 152.394 2.89677 152.337 6.4984C152.302 6.4984 152.266 6.49135 152.224 6.49135C148.852 6.49135 146.123 9.21195 146.123 12.5739C146.123 15.9359 148.852 18.6565 152.224 18.6565H174.626L174.619 18.6495C176.548 18.6072 178.097 17.0354 178.097 15.0972Z" fill="#E0E0E0"/>
<path d="M66.0528 46.8633C66.0528 44.8968 64.4552 43.2969 62.4759 43.2969C62.1154 43.2969 61.776 43.3533 61.4509 43.4449C61.5003 43.0855 61.5286 42.719 61.5286 42.3525C61.5286 38.1799 58.1355 34.8038 53.9577 34.8038C53.4841 34.8038 53.0175 34.8532 52.5651 34.9307C51.3987 33.0348 49.3063 31.759 46.917 31.759C43.2906 31.759 40.3499 34.6629 40.2933 38.2645C40.258 38.2645 40.2226 38.2575 40.1802 38.2575C36.8083 38.2575 34.0797 40.9781 34.0797 44.34C34.0797 47.702 36.8083 50.4226 40.1802 50.4226H62.5819L62.5748 50.4156C64.5047 50.3662 66.0528 48.7945 66.0528 46.8633Z" fill="#E0E0E0"/>
<path d="M148.077 251.001C223.774 251.001 285.138 247.429 285.138 243.022C285.138 238.616 223.774 235.044 148.077 235.044C72.3805 235.044 11.0163 238.616 11.0163 243.022C11.0163 247.429 72.3805 251.001 148.077 251.001Z" fill="#DADADA"/>
<path d="M247.931 196.096C247.931 196.096 252.42 192.368 256.266 196.096C260.111 199.825 260.853 222.936 260.853 222.936" stroke="#F15223" stroke-miterlimit="10"/>
<path d="M261.179 227.39C261.179 227.39 258.535 200.276 268.495 188.879" stroke="#F15223" stroke-miterlimit="10"/>
<path d="M260.231 224.536C260.231 224.536 262.267 193.665 254.802 186.814" stroke="#F15223" stroke-miterlimit="10"/>
<path d="M261.179 224.536C261.179 224.536 261.355 204.138 266.904 200.967C272.454 197.795 275.281 208.142 275.281 208.142" stroke="#F15223" stroke-miterlimit="10"/>
<path d="M258.98 224.536C258.98 224.536 259.885 208.875 255.587 203.278C251.289 197.682 246.758 205.675 246.758 205.675" stroke="#F15223" stroke-miterlimit="10"/>
<path d="M260.479 226.629C260.479 226.629 257.701 190.007 262.302 183.797" stroke="#F15223" stroke-miterlimit="10"/>
<path d="M271.655 203.934C271.655 203.934 268.884 204.949 269.711 207.352C270.531 209.756 279.282 213.71 279.282 213.71C279.282 213.71 282.944 210.362 279.579 204.914C276.214 199.465 271.725 202.214 271.655 203.934Z" fill="#F15223"/>
<path opacity="0.2" d="M271.655 203.934C271.655 203.934 268.884 204.949 269.711 207.352C270.531 209.756 279.282 213.71 279.282 213.71C279.282 213.71 282.944 210.362 279.579 204.914C276.214 199.465 271.725 202.214 271.655 203.934Z" fill="white"/>
<path d="M259.623 199.367C259.623 199.367 262.571 199.247 262.741 201.777C262.91 204.308 256.357 211.313 256.357 211.313C256.357 211.313 251.685 209.629 252.689 203.307C253.685 196.985 258.888 197.809 259.623 199.367Z" fill="#F15223"/>
<path opacity="0.2" d="M259.623 199.367C259.623 199.367 262.571 199.247 262.741 201.777C262.91 204.308 256.357 211.313 256.357 211.313C256.357 211.313 251.685 209.629 252.689 203.307C253.685 196.985 258.888 197.809 259.623 199.367Z" fill="white"/>
<path d="M257.128 187.244C257.128 187.244 259.093 187.033 258.938 185.841C258.782 184.65 251.303 181.577 246.885 186.546C246.885 186.546 249.713 191.388 253.798 191.452C257.877 191.508 257.128 187.244 257.128 187.244Z" fill="#F15223"/>
<path opacity="0.2" d="M257.128 187.244C257.128 187.244 259.093 187.033 258.938 185.841C258.782 184.65 251.303 181.577 246.885 186.546C246.885 186.546 249.713 191.388 253.798 191.452C257.877 191.508 257.128 187.244 257.128 187.244Z" fill="white"/>
<path d="M260.79 184.347C260.79 184.347 259.008 185.207 258.514 184.108C258.012 183.008 262.734 176.46 269.11 178.349C269.11 178.349 269.28 183.945 265.844 186.151C262.416 188.358 260.79 184.347 260.79 184.347Z" fill="#F15223"/>
<path opacity="0.2" d="M260.79 184.347C260.79 184.347 259.008 185.207 258.514 184.108C258.012 183.008 262.734 176.46 269.11 178.349C269.11 178.349 269.28 183.945 265.844 186.151C262.416 188.358 260.79 184.347 260.79 184.347Z" fill="white"/>
<path d="M251.487 202.968C251.487 202.968 252.844 201.876 251.381 201.347C249.918 200.812 242.735 200.967 242.665 208.057C242.665 208.057 251.027 209.446 252.06 206.739C253.092 204.04 251.487 202.968 251.487 202.968Z" fill="#F15223"/>
<path opacity="0.2" d="M251.487 202.968C251.487 202.968 252.844 201.876 251.381 201.347C249.918 200.812 242.735 200.967 242.665 208.057C242.665 208.057 251.027 209.446 252.06 206.739C253.092 204.04 251.487 202.968 251.487 202.968Z" fill="white"/>
<path d="M268.537 187.061C268.537 187.061 267.18 185.968 268.643 185.44C270.107 184.904 277.289 185.059 277.359 192.149C277.359 192.149 268.997 193.538 267.965 190.831C266.933 188.132 268.537 187.061 268.537 187.061Z" fill="#F15223"/>
<path opacity="0.2" d="M268.537 187.061C268.537 187.061 267.18 185.968 268.643 185.44C270.107 184.904 277.289 185.059 277.359 192.149C277.359 192.149 268.997 193.538 267.965 190.831C266.933 188.132 268.537 187.061 268.537 187.061Z" fill="white"/>
<path d="M264.119 192.777C264.119 192.777 263.999 191.452 265.074 191.973C266.148 192.495 269.895 196.519 266.014 200.339C266.014 200.339 260.79 196.484 261.73 194.475C262.67 192.467 264.119 192.777 264.119 192.777Z" fill="#F15223"/>
<path opacity="0.2" d="M264.119 192.777C264.119 192.777 263.999 191.452 265.074 191.973C266.148 192.495 269.895 196.519 266.014 200.339C266.014 200.339 260.79 196.484 261.73 194.475C262.67 192.467 264.119 192.777 264.119 192.777Z" fill="white"/>
<path d="M250.271 194.666C250.271 194.666 251.084 193.608 249.896 193.475C248.709 193.341 243.386 194.757 244.63 200.058C244.63 200.058 251.112 199.571 251.388 197.372C251.664 195.173 250.271 194.666 250.271 194.666Z" fill="#F15223"/>
<path opacity="0.2" d="M250.271 194.666C250.271 194.666 251.084 193.608 249.896 193.475C248.709 193.341 243.386 194.757 244.63 200.058C244.63 200.058 251.112 199.571 251.388 197.372C251.664 195.173 250.271 194.666 250.271 194.666Z" fill="white"/>
<path d="M272.171 244.193H249.932L247.535 219.919H274.567L272.171 244.193Z" fill="#F15223"/>
<path d="M272.171 244.193H249.932L247.535 219.919H274.567L272.171 244.193Z" fill="#9AC3C4"/>
<path d="M275.762 217.234H246.348V222.591H275.762V217.234Z" fill="#F15223"/>
<path d="M275.762 217.234H246.348V222.591H275.762V217.234Z" fill="black"/>
<path d="M55.1807 244.452H120.802C124.867 244.452 127.864 241.168 127.511 237.122L110.559 43.9102C110.206 39.8575 106.622 36.5801 102.564 36.5801H36.9426C32.8779 36.5801 29.8736 39.8645 30.2341 43.9102L47.1856 237.115C47.5391 241.168 51.116 244.452 55.1807 244.452Z" fill="#263238"/>
<path opacity="0.6" d="M55.1807 244.452H120.802C124.867 244.452 127.864 241.168 127.511 237.122L110.559 43.9102C110.206 39.8575 106.622 36.5801 102.564 36.5801H36.9426C32.8779 36.5801 29.8736 39.8645 30.2341 43.9102L47.1856 237.115C47.5391 241.168 51.116 244.452 55.1807 244.452Z" fill="white"/>
<path d="M62.2497 244.452H127.871C131.936 244.452 134.933 241.168 134.58 237.122L117.628 43.9102C117.275 39.8575 113.691 36.5801 109.633 36.5801H44.0116C39.9469 36.5801 36.9426 39.8645 37.3031 43.9102L54.2546 237.115C54.6081 241.168 58.185 244.452 62.2497 244.452Z" fill="#263238"/>
<path opacity="0.8" d="M62.2497 244.452H127.871C131.936 244.452 134.933 241.168 134.58 237.122L117.628 43.9102C117.275 39.8575 113.691 36.5801 109.633 36.5801H44.0116C39.9469 36.5801 36.9426 39.8645 37.3031 43.9102L54.2546 237.115C54.6081 241.168 58.185 244.452 62.2497 244.452Z" fill="white"/>
<path d="M39.9752 43.5436L56.9621 237.115C57.1034 238.708 58.1002 239.941 59.2029 239.941H130.331C131.349 239.941 132.014 238.807 131.886 237.348L114.857 43.311C114.744 42.0424 114.002 40.9358 113.118 40.9358H95.3397C94.8378 40.9358 94.4207 41.408 94.2935 42.0846L93.7845 44.6925C93.6573 45.3691 93.2402 45.8343 92.7383 45.8343H62.4759C61.974 45.8343 61.4791 45.3902 61.2317 44.7136L60.2633 42.0917C60.0159 41.4151 59.521 40.9358 59.0191 40.9358H41.4951C40.5196 40.9358 39.8551 42.1481 39.9752 43.5436Z" fill="black"/>
<path d="M40.8094 53.0305L55.3856 219.128H130.289L115.713 53.0305H40.8094Z" fill="white"/>
<path d="M107.081 48.7383H106.155L106 46.9622H106.926L107.081 48.7383Z" fill="white"/>
<path d="M108.587 48.7383H107.668L107.456 46.3701H108.382L108.587 48.7383Z" fill="white"/>
<path d="M110.1 48.7383H109.174L108.912 45.7781H109.838L110.1 48.7383Z" fill="white"/>
<path d="M111.605 48.7383H110.679L110.368 45.186H111.294L111.605 48.7383Z" fill="white"/>
<path d="M48.8539 48.0899H49.3982L49.2427 46.3137H48.6984L48.8539 48.0899Z" fill="white"/>
<path d="M48.5358 48.7383H44.1601L43.8914 45.6653H48.2601L48.5358 48.7383Z" fill="white"/>
<path opacity="0.6" d="M77.2359 41.1896C77.3066 42.0072 77.8227 42.6697 78.3953 42.6697C78.9608 42.6697 79.3637 42.0072 79.293 41.1896C79.2223 40.372 78.7063 39.7095 78.1337 39.7095C77.5611 39.7095 77.1653 40.372 77.2359 41.1896Z" fill="#263238"/>
<path opacity="0.6" d="M75.1506 41.1896C75.193 41.7111 75.5252 42.134 75.8928 42.134C76.2533 42.134 76.5149 41.7111 76.4654 41.1896C76.423 40.668 76.0908 40.2451 75.7232 40.2451C75.3627 40.2451 75.1082 40.668 75.1506 41.1896Z" fill="#263238"/>
<path opacity="0.2" d="M42.8311 76.071L43.1775 80.0462L44.7963 98.5054L45.0508 101.374L47.3482 127.544L47.5956 130.413L49.8012 155.539L50.1193 159.155H91.0064V82.9148C83.3507 75.3169 73.1713 71.1302 62.3345 71.1302C55.3998 71.1302 48.7337 72.843 42.8311 76.071Z" fill="#CDE1E1"/>
<g opacity="0.2">
<path d="M87.38 101.374H63.7695V127.544H87.38V101.374Z" fill="#A5C9C9"/>
<path d="M45.0508 101.374L47.3482 127.544H60.8995V101.374H45.0508Z" fill="#A5C9C9"/>
<path d="M43.1775 80.0462L44.7963 98.5054H60.8995V74.7742C54.5657 75.0138 48.4934 76.8322 43.1775 80.0462Z" fill="#A5C9C9"/>
<path d="M47.5956 130.413L49.8011 155.539H60.8995V130.413H47.5956Z" fill="#A5C9C9"/>
<path d="M63.7695 98.5125V74.7742C72.5845 75.1054 80.8977 78.5097 87.38 84.4584V98.5125H63.7695Z" fill="#A5C9C9"/>
<path d="M87.38 130.413H63.7695V155.539H87.38V130.413Z" fill="#A5C9C9"/>
</g>
<path d="M99.8356 79.2216C99.8356 79.2216 99.0014 74.0482 106.876 73.1813C114.751 72.3143 120.548 77.8049 120.449 84.6487C120.357 91.4924 122.202 97.7724 125.206 98.7309C128.211 99.6895 130.126 102.502 128.981 104.581C128.981 104.581 130.543 103.08 126.083 101.621C121.622 100.162 120.117 98.308 120.117 98.308C120.117 98.308 120.442 105.159 125.8 106.836C131.158 108.514 129.752 116.196 123.821 116.725C117.89 117.254 115.691 114.716 115.691 114.716C115.691 114.716 117.303 119.199 121.021 118.628C121.021 118.628 112.638 119.974 103.328 112.595C94.0178 105.215 92.1233 91.8308 93.2543 85.0715C94.3854 78.3053 99.8356 79.2216 99.8356 79.2216Z" fill="#2E353A"/>
<path d="M79.9787 132.21L78.2963 140.195C78.2963 140.195 72.1745 143.917 71.503 145.016C70.8314 146.116 72.0968 149.386 72.4644 149.577C72.832 149.767 80.1767 146.165 80.2756 145.136C80.3746 144.107 79.9504 140.943 79.9504 140.943L82.0217 132.774L79.9787 132.21Z" fill="#FFADA3"/>
<path d="M90.1371 97.9628C83.7821 97.3426 77.625 126.586 78.4308 138.278L81.8522 138.039C81.8522 138.039 86.2845 123.618 88.7304 114.286C91.1833 104.955 90.1371 97.9628 90.1371 97.9628Z" fill="#263238"/>
<path opacity="0.2" d="M78.4306 138.271L81.8591 138.032C81.8591 138.032 86.2843 123.611 88.7372 114.279C88.8786 113.736 89.0058 113.208 89.1331 112.686C91.07 104.172 90.1439 97.9626 90.1439 97.9626C87.7193 97.723 85.33 101.811 83.3506 107.605C80.106 117.042 77.9287 131.026 78.4306 138.271Z" fill="white"/>
<path opacity="0.2" d="M78.4306 138.271L81.8591 138.032C81.8591 138.032 86.2843 123.611 88.7372 114.279C88.8786 113.736 89.0058 113.208 89.1331 112.686L87.2315 103.051C87.2315 103.051 85.542 104.524 83.3506 107.597C80.106 117.042 77.9287 131.026 78.4306 138.271Z" fill="black"/>
<path d="M112.418 105.462C115.811 107.104 114.447 117.486 107.152 133.718C99.8638 149.95 97.7148 151.825 97.7148 151.825C97.7148 151.825 92.1303 148.519 92.3848 148.005C92.6464 147.483 112.418 105.462 112.418 105.462Z" fill="#263238"/>
<path opacity="0.2" d="M92.3848 147.998C92.1303 148.526 97.7219 151.825 97.7219 151.825C97.7219 151.825 99.8709 149.957 107.159 133.718C108.036 131.766 108.827 129.891 109.534 128.122C114.709 115.118 115.409 106.914 112.425 105.462C112.425 105.462 111.485 107.457 110.015 110.579C104.727 121.807 92.5898 147.589 92.3848 147.998Z" fill="white"/>
<path opacity="0.2" d="M92.3848 147.998C92.1303 148.526 97.7219 151.825 97.7219 151.825C97.7219 151.825 99.8709 149.957 107.159 133.718C108.036 131.766 108.827 129.891 109.534 128.122C113.67 114.822 110.8 106.632 110.8 106.632C105.512 117.853 92.5898 147.589 92.3848 147.998Z" fill="black"/>
<path d="M106.41 101.346C105.738 99.9291 99.5952 97.6949 97.2766 98.0332L96.6545 103.735L105.265 107.619C105.265 107.619 107.541 103.735 106.41 101.346Z" fill="#263238"/>
<path d="M104.339 132.041L112.609 105.976L90.0238 98.2446L84.0363 126.289L104.339 132.041Z" fill="white"/>
<path d="M110.114 219.128C106.389 210.494 101.963 198.336 100.719 186.918C90.6176 165.59 90.144 139.491 90.144 139.491L100.988 135.276C100.988 135.276 107.018 169.967 108.559 184.197C109.76 195.305 113.429 209.507 116.186 219.135H110.114V219.128Z" fill="#FFADA3"/>
<path d="M91.6567 219.128H85.8813C83.9868 209.874 82.0853 196.764 83.2587 185.099C77.8015 162.15 82.7498 136.516 82.7498 136.516L94.2298 134.627C94.2298 134.627 92.9291 169.812 91.4871 184.049C90.3914 194.91 90.9781 209.162 91.6567 219.128Z" fill="#FFADA3"/>
<path d="M102.649 106.153C98.3016 103.834 97.6725 101.367 97.6725 101.367C101.61 99.7388 101.009 94.1002 101.009 94.1002L106.113 97.2085C105.625 98.0613 105.272 98.7943 105.017 99.4357C103.702 102.748 105.201 103.354 105.201 103.354C105.484 105.525 102.649 106.153 102.649 106.153Z" fill="#FFADA3"/>
<path opacity="0.2" d="M106.113 97.2155C105.625 98.0684 105.272 98.8014 105.017 99.4428C101.306 98.0331 101.002 94.1073 101.002 94.1073L106.113 97.2155Z" fill="black"/>
<path d="M108.926 80.7299C113.804 82.2805 114.539 85.3887 113.295 90.5127C111.74 96.9195 108.919 100.93 103.25 97.6455C95.5447 93.1981 100.825 78.1502 108.926 80.7299Z" fill="#FFADA3"/>
<path d="M110.227 89.2371C110.227 89.2371 110.496 90.7242 110.997 91.7039C110.997 91.7039 110.368 92.2325 109.534 91.8449L110.227 89.2371Z" fill="#DC6D66"/>
<path d="M107.371 87.8908C107.251 88.2925 106.94 88.5533 106.671 88.4758C106.403 88.3983 106.282 88.0036 106.396 87.6018C106.516 87.2001 106.827 86.9393 107.095 87.0168C107.364 87.1014 107.484 87.489 107.371 87.8908Z" fill="#2E353A"/>
<path d="M106.975 87.0098L107.958 86.9252C107.958 86.9182 107.3 87.5314 106.975 87.0098Z" fill="#2E353A"/>
<path d="M112.411 89.2793C112.291 89.6811 111.98 89.9419 111.711 89.8643C111.443 89.7868 111.323 89.3921 111.436 88.9904C111.556 88.5886 111.867 88.3278 112.136 88.4054C112.411 88.4829 112.531 88.8776 112.411 89.2793Z" fill="#2E353A"/>
<path d="M112.023 88.3912L113.005 88.3066C112.998 88.3066 112.348 88.9128 112.023 88.3912Z" fill="#2E353A"/>
<path d="M108.389 84.4373C108.389 84.4373 107.039 83.9157 106.049 84.6558" stroke="#2E353A" stroke-width="0.7247" stroke-miterlimit="10" stroke-linecap="round" stroke-linejoin="round"/>
<path d="M112.072 85.3253C112.072 85.3253 113.033 85.4028 113.747 86.5587" stroke="#2E353A" stroke-width="0.7247" stroke-miterlimit="10" stroke-linecap="round" stroke-linejoin="round"/>
<path d="M100.967 87.2354C100.967 87.2354 104.529 83.965 105.173 80.7722C105.173 80.7722 116.101 79.9123 113.45 89.8502C113.45 89.8502 117.176 81.4629 108.849 78.6013C100.535 75.7468 96.6404 87.9825 99.8073 93.0078C99.8073 93.0008 98.7611 89.2864 100.967 87.2354Z" fill="#2E353A"/>
<path d="M101.44 88.5111C101.659 87.7146 101.271 86.1359 99.7578 85.8257C98.1955 85.5086 96.4848 88.3772 100.005 90.3154C100.507 90.5974 100.981 90.1674 101.44 88.5111Z" fill="#FFADA3"/>
<path d="M106.579 90.9709C106.579 90.9709 106.247 92.9162 108.679 93.7902" stroke="#2E353A" stroke-width="0.7247" stroke-miterlimit="10" stroke-linecap="round" stroke-linejoin="round"/>
<path d="M103.299 129.524L110.022 178.77C110.022 178.77 97.4462 183.006 75.5041 179.144C75.5041 179.144 72.4714 152.537 81.7884 132.196L82.2055 130.222L103.299 129.524Z" fill="#F15223"/>
<path d="M104.586 130.18L104.141 134.12L82.4317 129.961L83.8596 125.951L104.586 130.18Z" fill="black"/>
<path d="M93.4664 132.294C93.9753 132.393 99.3619 133.774 99.68 133.485C100.005 133.197 100.436 129.285 100.436 129.285C100.097 128.714 94.4066 127.678 94.1167 127.861C93.8198 128.051 92.9574 132.196 93.4664 132.294ZM94.6045 128.361C94.8448 128.206 99.5245 129.059 99.8002 129.531C99.8002 129.531 99.4468 132.738 99.1781 132.978C98.9095 133.218 94.4914 132.083 94.0672 131.998C93.6572 131.921 94.3641 128.517 94.6045 128.361Z" fill="white"/>
<path d="M94.8519 129.567L95.9759 129.785C96.1879 129.828 96.3364 130.025 96.3152 130.236V130.257C96.2869 130.504 96.0536 130.673 95.8133 130.624L94.6964 130.391C94.4631 130.342 94.3146 130.109 94.3783 129.877C94.4278 129.658 94.6398 129.524 94.8519 129.567Z" fill="white"/>
<path d="M97.2836 98.0329L100.217 101.332L98.2238 103.46C98.2238 103.46 95.6436 114.702 89.9743 125.077L80.6149 120.834C80.6149 120.834 86.6236 101.663 90.1369 97.9766L95.8628 99.795L97.2836 98.0329Z" fill="#263238"/>
<path opacity="0.2" d="M84.206 110.339C82.1984 115.654 80.6149 120.827 80.6149 120.827L86.0863 123.308L89.9672 125.07C95.6295 114.695 98.2168 103.453 98.2168 103.453L100.203 101.325L97.2695 98.0261L95.8486 99.774L90.1227 97.9626C88.5322 99.6472 85.8955 105.864 84.206 110.339Z" fill="white"/>
<path d="M106.41 101.346L105.993 103.425L106.346 105.222C106.346 105.222 106.834 118.452 102.076 128.566L106.791 129.658C106.791 129.658 113.655 111.58 112.418 105.455L107.095 103.164L106.41 101.346Z" fill="#263238"/>
<path opacity="0.2" d="M106.41 101.346L105.993 103.425L106.346 105.222C106.346 105.222 106.834 118.452 102.076 128.566L106.791 129.658C106.791 129.658 113.655 111.58 112.418 105.455L107.095 103.164L106.41 101.346Z" fill="white"/>
<path d="M164.185 244.452H229.806C233.864 244.452 237.448 241.168 237.801 237.122L254.753 43.9102C255.106 39.8575 252.102 36.5801 248.044 36.5801H182.423C178.358 36.5801 174.781 39.8645 174.428 43.9102L157.476 237.115C157.116 241.168 160.12 244.452 164.185 244.452Z" fill="#263238"/>
<path opacity="0.2" d="M164.185 244.452H229.806C233.864 244.452 237.448 241.168 237.801 237.122L254.753 43.9102C255.106 39.8575 252.102 36.5801 248.044 36.5801H182.423C178.358 36.5801 174.781 39.8645 174.428 43.9102L157.476 237.115C157.116 241.168 160.12 244.452 164.185 244.452Z" fill="#A8ADAF"/>
<path d="M157.116 244.452H222.737C226.795 244.452 230.379 241.168 230.732 237.122L247.684 43.9102C248.037 39.8575 245.033 36.5801 240.975 36.5801H175.354C171.289 36.5801 167.712 39.8645 167.359 43.9102L150.407 237.115C150.047 241.168 153.051 244.452 157.116 244.452Z" fill="#263238"/>
<path d="M170.101 43.5436L153.115 237.115C152.973 238.708 153.758 239.941 154.861 239.941H225.989C227.007 239.941 227.869 238.807 227.997 237.348L245.026 43.311C245.139 42.0424 244.588 40.9358 243.704 40.9358H225.925C225.423 40.9358 224.929 41.408 224.681 42.0846L223.713 44.6925C223.465 45.3691 222.971 45.8343 222.469 45.8343H192.199C191.697 45.8343 191.28 45.3902 191.153 44.7136L190.644 42.0917C190.517 41.4151 190.1 40.9358 189.598 40.9358H172.074C171.105 40.9358 170.222 42.1481 170.101 43.5436Z" fill="#F15223"/>
<path d="M154.691 219.121H229.594L235.695 149.577L235.921 147.025L240.254 97.6314L240.445 95.4535L241.421 84.3668L241.654 81.6743L244.17 53.0305H169.267L154.691 219.121Z" fill="white"/>
<path d="M236.296 48.7383H235.37L235.525 46.9622H236.451L236.296 48.7383Z" fill="white"/>
<path d="M237.801 48.7383H236.875L237.08 46.3701H238.006L237.801 48.7383Z" fill="white"/>
<path d="M239.307 48.7383H238.381L238.643 45.7781H239.569L239.307 48.7383Z" fill="white"/>
<path d="M240.82 48.7383H239.894L240.205 45.186H241.131L240.82 48.7383Z" fill="white"/>
<path d="M178.174 48.0899H178.726L178.881 46.3137H178.33L178.174 48.0899Z" fill="white"/>
<path d="M177.743 48.7383H173.374L173.643 45.6653H178.012L177.743 48.7383Z" fill="white"/>
<path opacity="0.6" d="M207.772 41.1896C207.701 42.0072 208.104 42.6697 208.67 42.6697C209.235 42.6697 209.759 42.0072 209.829 41.1896C209.9 40.372 209.497 39.7095 208.931 39.7095C208.359 39.7095 207.843 40.372 207.772 41.1896Z" fill="white"/>
<path opacity="0.6" d="M205.687 41.1896C205.637 41.7111 205.899 42.134 206.259 42.134C206.62 42.134 206.952 41.7111 207.002 41.1896C207.044 40.668 206.79 40.2451 206.429 40.2451C206.069 40.2451 205.736 40.668 205.687 41.1896Z" fill="white"/>
<path d="M193.457 81.6743V149.577H235.695L235.921 147.025L240.254 97.6314L240.445 95.4535L241.421 84.3667L241.654 81.6743H193.457Z" fill="#F5F9F9"/>
<path d="M223.133 84.3596H196.002V95.4464H223.133V84.3596Z" fill="#E5EFEF"/>
<path d="M225.317 84.3667V95.4535H240.445L241.421 84.3667H225.317Z" fill="#E5EFEF"/>
<path d="M223.133 97.6313H196.002V147.025H223.133V97.6313Z" fill="#E5EFEF"/>
<path d="M225.317 97.6313V147.025H235.921L240.254 97.6313H225.317Z" fill="#E5EFEF"/>
<path d="M176.902 144.283C176.902 144.283 166.122 153.101 163.789 154.32C161.456 155.546 152.372 143.55 152.372 143.55L150.52 145.489C150.52 145.489 160.24 160.572 163.789 160.325C167.337 160.078 180.118 150.274 180.118 150.274L176.902 144.283Z" fill="#B97964"/>
<path d="M176.902 144.283C176.902 144.283 166.122 153.101 163.789 154.32C161.456 155.546 152.372 143.55 152.372 143.55L150.52 145.489C150.52 145.489 160.24 160.572 163.789 160.325C167.337 160.078 180.118 150.274 180.118 150.274L176.902 144.283Z" fill="#FFADA3"/>
<path d="M183.617 141.774C178.492 138.462 168.787 150 168.787 150L174.315 158.07C174.315 158.07 190.135 145.989 183.617 141.774Z" fill="#F15223"/>
<path opacity="0.2" d="M168.787 150L174.315 158.07C174.315 158.07 174.817 157.689 175.601 157.041C176.81 156.033 178.704 154.384 180.493 152.509C184.056 148.752 187.187 144.086 183.617 141.774C178.492 138.462 168.787 150 168.787 150Z" fill="black"/>
<path opacity="0.2" d="M175.601 157.041C176.81 156.033 178.704 154.384 180.493 152.509L176.987 146.983C176.987 146.983 174.675 151.219 175.601 157.041Z" fill="black"/>
<path d="M180.373 178.996C180.373 178.996 192.736 174.971 210.126 176.783C210.126 176.783 206.521 142.536 195.819 139.138C185.116 135.741 178.485 145.418 178.485 145.418L180.373 178.996Z" fill="#F15223"/>
<path opacity="0.5" d="M180.373 178.996C180.373 178.996 192.736 174.971 210.126 176.783C210.126 176.783 206.521 142.536 195.819 139.138C185.116 135.741 178.485 145.418 178.485 145.418L180.373 178.996Z" fill="black"/>
<path d="M196.971 203.143C196.667 203.129 193.281 203.108 192.97 203.086C186.671 202.565 180.062 200.93 174.972 199.4C169.72 197.821 166.093 196.363 166.093 196.363C165.401 200.366 168.864 210.917 171.925 219.128H160.071C153.334 206.963 145.049 188.384 152.16 180.737C160.367 171.905 182.635 181.491 182.635 181.491L188.453 169.241L213.109 170.651C213.109 170.644 218.439 204.278 196.971 203.143Z" fill="#263238"/>
<path opacity="0.2" d="M193.889 203.143C193.592 203.129 193.281 203.108 192.97 203.086C186.671 202.565 180.062 200.93 174.972 199.4C183.907 197.765 192.425 191.365 192.425 191.365L193.889 203.143Z" fill="black"/>
<path d="M186.417 219.128C185.986 204.489 189.676 186.784 190.87 185.015C190.87 185.015 213.159 184.395 212.537 189.935C212.091 193.896 205.906 209.634 203.361 219.121H186.417V219.128Z" fill="#263238"/>
<path d="M193.988 132.767C193.988 132.767 188.318 132.767 182.536 135.741L179.242 140.019C179.242 140.019 192.503 133.782 195.819 136.389L193.988 132.767Z" fill="#F15223"/>
<path d="M213.724 176.176L185.929 174.654C185.929 174.654 186.784 152.769 176.817 143.649C176.817 143.649 178.57 141.584 181.963 139.42C185.123 137.404 189.711 135.297 195.642 134.698C198.929 134.367 199.657 139.138 203.75 140.012C203.75 140.026 213.795 147.462 213.724 176.176Z" fill="white"/>
<path d="M186.593 136.396C182.515 138.624 181.539 142.324 180.691 146.236C179.843 150.155 180.373 178.996 180.373 178.996L176.202 143.586C176.202 143.586 180.458 138.617 183.78 136.855L186.593 136.396Z" fill="#F15223"/>
<path opacity="0.2" d="M186.593 136.396C182.515 138.624 181.539 142.324 180.691 146.236C179.843 150.155 180.373 178.996 180.373 178.996L176.202 143.586C176.202 143.586 180.458 138.617 183.78 136.855L186.593 136.396Z" fill="black"/>
<path d="M195.119 135.262C193.373 139.286 191.005 141.281 188.785 141.746C186.12 142.303 183.9 139.202 183.9 139.202C183.9 139.202 185.342 137.144 185.116 135.748C184.982 134.938 184.607 134.141 184.119 133.373C183.872 132.964 183.582 132.576 183.285 132.196L187.378 123.731C188.226 127.452 190.121 135.854 195.119 135.262Z" fill="#FFADA3"/>
<path opacity="0.2" d="M187.491 127.678C189.336 131.829 186.615 134.67 185.116 135.741C184.982 134.93 184.607 134.134 184.119 133.366L187.491 127.678Z" fill="black"/>
<path d="M181.645 113.715C181.645 113.715 177.92 118.262 179.751 122.505C181.582 126.755 188.325 115.47 188.325 115.47L181.645 113.715Z" fill="#263238"/>
<path d="M177.277 123.639C177.1 124.309 176.973 124.957 176.881 125.57C176.852 125.824 176.831 126.071 176.824 126.318C176.775 128.206 177.467 129.954 178.627 131.251C180.38 133.211 183.179 134.148 186 132.985C186.085 132.957 186.155 132.922 186.24 132.886C189.577 131.392 190.595 128.58 192.701 123.963C193.168 122.977 193.401 121.898 193.373 120.806C193.281 116.979 190.086 113.948 186.247 114.047C181.589 114.131 178.436 119.248 177.277 123.639Z" fill="#FFADA3"/>
<path d="M184.989 122.526C184.869 122.92 184.515 123.146 184.261 123.047C184.006 122.949 183.928 122.554 184.07 122.173C184.218 121.786 184.543 121.56 184.798 121.652C185.052 121.743 185.137 122.131 184.989 122.526Z" fill="#263238"/>
<path d="M180.62 120.841C180.5 121.236 180.147 121.454 179.892 121.363C179.645 121.264 179.56 120.869 179.701 120.489C179.85 120.101 180.175 119.875 180.429 119.967C180.684 120.066 180.762 120.475 180.62 120.841Z" fill="#263238"/>
<path d="M181.935 121.567C181.016 122.568 179.97 123.435 178.818 124.154C179.206 124.746 179.835 125.134 180.542 125.211L181.935 121.567Z" fill="#DC6D66"/>
<path d="M186.89 121.631C186.798 121.609 186.728 121.546 186.707 121.454C186.551 120.855 186.12 120.369 185.547 120.136C185.42 120.101 185.349 119.96 185.385 119.833C185.427 119.706 185.561 119.636 185.689 119.671C186.424 119.946 186.975 120.559 187.173 121.313C187.216 121.44 187.145 121.574 187.018 121.616H187.011C186.968 121.638 186.926 121.638 186.89 121.631Z" fill="#263238"/>
<path d="M180.394 127.445C181.447 128.044 182.734 128.094 183.837 127.579C183.9 127.544 183.921 127.466 183.886 127.403C183.858 127.34 183.78 127.318 183.716 127.347C183.716 127.347 183.709 127.347 183.709 127.354C182.684 127.812 181.497 127.762 180.514 127.213C180.458 127.177 180.38 127.199 180.344 127.255C180.344 127.262 180.337 127.262 180.337 127.269C180.302 127.325 180.323 127.403 180.38 127.438C180.387 127.445 180.387 127.445 180.394 127.445Z" fill="#263238"/>
<path d="M179.327 118.621C179.277 118.621 179.228 118.607 179.192 118.579C179.1 118.48 179.1 118.332 179.199 118.24C179.199 118.24 179.199 118.24 179.206 118.233C179.765 117.684 180.564 117.444 181.334 117.592C181.461 117.627 181.539 117.754 181.511 117.881C181.476 118.008 181.348 118.085 181.214 118.057C180.599 117.958 179.984 118.163 179.539 118.593C179.468 118.635 179.397 118.642 179.327 118.621Z" fill="#263238"/>
<path d="M190.291 131.385C189.471 131.385 188.955 130.483 189.393 129.792C190.248 128.432 190.736 127.079 190.418 126.818C189.866 126.367 189.492 127.093 189.492 127.093C188.636 125.444 188.841 122.349 190.262 120.919C191.28 119.897 190.58 118.247 189.195 117.944C189.195 117.944 195.274 118.233 195.705 119.946C196.137 121.659 195.373 125.655 192.517 129.264C191.747 130.25 190.983 130.92 190.291 131.385Z" fill="#263238"/>
<path d="M181.405 126.106C181.405 126.106 179.249 125.211 178.818 125.824C178.097 126.853 178.662 131.815 179.638 132.83C180.613 133.845 185.441 134.374 186.24 132.886C187.039 131.399 186.36 126.797 185.371 125.965C184.381 125.126 182.112 126.106 182.112 126.106L182.218 126.846C182.218 126.846 184.558 126.127 185.102 127.199C185.646 128.263 185.745 131.026 185.102 131.385C184.459 131.752 182.274 132.358 182.529 129.926H181.101C181.101 129.926 181.447 131.604 181.172 131.709C180.889 131.815 179.92 131.681 179.638 130.772C179.355 129.863 179.001 127.079 179.249 126.656C179.496 126.24 181.511 126.797 181.511 126.797L181.405 126.106Z" fill="#263238"/>
<path d="M189.195 117.944C189.195 117.944 187.781 117.74 188.106 116.415C188.106 116.415 185.512 117.599 184.522 115.717C184.522 115.717 181.836 116.76 181.497 115.16C181.497 115.16 179.828 116.07 179.235 114.604C178.641 113.137 181.497 112.306 181.497 112.306C181.497 112.306 180.592 111.192 181.928 110.142C183.257 109.099 184.996 111.185 184.996 111.185C184.996 111.185 185.229 109.303 186.586 108.746C187.944 108.19 188.976 111.044 188.976 111.044C188.976 111.044 189.902 109.303 191.125 109.931C192.348 110.558 192.906 113.307 192.906 113.307C192.906 113.307 194.504 111.805 195.698 113.307C196.893 114.808 196.335 116.619 196.335 116.619C196.335 116.619 198.71 117.839 198.363 119.671C198.017 121.504 196.964 120.947 196.964 120.947C196.964 120.947 197.805 123.223 197.034 124.837C196.264 126.452 195.267 124.837 195.267 124.837C195.267 124.837 195.564 126.733 194.376 128.263C193.189 129.799 192.694 123.964 192.694 123.964C192.694 123.964 192.878 119.262 189.195 117.944Z" fill="#263238"/>
<path d="M193.274 128.644C192.333 129.51 191.089 129.969 189.803 129.926C188.106 129.849 187.788 128.214 188.693 126.889C189.513 125.719 191.386 124.302 192.878 125.042C194.369 125.775 194.412 127.565 193.274 128.644Z" fill="#FFADA3"/>
<path d="M140.221 128.115C140.221 128.115 152.924 146.863 157.271 151.367C157.271 151.367 157.519 162.214 159.696 163.617C161.873 165.019 160.502 164.18 161.753 163.595C162.997 163.01 163.294 164.857 165.372 164.336C167.451 163.814 166.694 160.678 168.115 159.092C169.529 157.506 173.452 160.459 171.247 156.625C169.041 152.791 160.141 147.321 160.141 147.321C160.141 147.321 163.796 123.386 162.304 120.172C160.813 116.958 156.211 122.779 153.609 121.095C151.008 119.41 148.774 118.72 147.636 122.448C146.498 126.177 142.554 125.845 142.009 125.613C141.479 125.38 139.104 126.473 140.221 128.115Z" fill="#F15223"/>
<path opacity="0.6" d="M165.372 164.328C167.451 163.814 166.701 160.67 168.115 159.085C169.529 157.499 173.452 160.452 171.247 156.618C169.041 152.784 160.141 147.314 160.141 147.314C160.141 147.314 163.287 126.748 162.552 121.194C162.495 120.757 162.417 120.411 162.304 120.172C160.813 116.958 156.211 122.779 153.609 121.095C151.008 119.41 148.774 118.727 147.643 122.455C146.505 126.184 142.561 125.852 142.016 125.62C141.606 125.444 140.164 126.015 139.952 127.008C139.881 127.333 139.945 127.706 140.221 128.108C140.221 128.108 152.931 146.856 157.271 151.36C157.271 151.36 157.519 162.207 159.696 163.61C161.873 165.012 160.502 164.166 161.746 163.588C162.997 163.003 163.301 164.85 165.372 164.328Z" fill="white"/>
<path opacity="0.4" d="M150.075 131.139C151.856 129.976 152.747 126.818 154.514 127.509C156.282 128.207 156.034 131.738 158.006 128.947C159.979 126.163 158.324 122.589 159.844 122.152C160.268 122.025 161.046 121.821 161.873 121.49C162.099 121.398 162.326 121.299 162.552 121.187C162.495 120.75 162.417 120.404 162.304 120.165C162.248 120.045 162.191 119.946 162.128 119.847C160.481 117.366 156.119 122.709 153.609 121.088C152.896 120.63 152.217 120.242 151.574 120.01C151.574 120.01 151.574 120.009 151.574 120.002C149.87 119.361 148.47 119.735 147.643 122.448C146.505 126.177 142.561 125.845 142.016 125.613C141.712 125.479 140.829 125.768 140.32 126.332C140.136 126.522 140.002 126.748 139.952 127.001C140.249 128.397 141.628 128.615 143.126 128.601C144.314 128.587 145.572 128.432 146.427 128.608C148.407 129.017 148.294 132.309 150.075 131.139Z" fill="black"/>
<path d="M150.075 131.139C151.856 129.976 152.747 126.818 154.514 127.509C156.282 128.207 156.034 131.738 158.006 128.947C159.979 126.163 158.324 122.589 159.844 122.152C159.972 122.11 160.141 122.068 160.332 122.011C160.756 121.884 161.301 121.715 161.873 121.49C161.972 120.919 162.064 120.369 162.128 119.847C162.269 118.656 162.262 117.719 161.951 117.486C160.926 116.718 158.494 119.206 158.494 119.206C158.494 119.206 159.653 116.873 157.851 116.464C156.055 116.048 155.631 119.241 155.631 119.241C155.631 119.241 154.769 116.218 153.115 115.661C151.503 115.125 151.574 119.77 151.574 119.995C151.545 119.869 151.072 117.585 149.114 116.711C147.099 115.802 146.442 122.103 146.442 122.103C146.442 122.103 145.551 118.325 144.116 118.769C142.737 119.199 143.586 121.997 143.649 122.194C143.487 121.969 141.076 118.565 140.327 119.96C139.577 121.363 141.861 123.942 141.988 124.083C141.882 124.041 138.864 122.801 138.807 124.556C138.786 125.331 139.5 125.916 140.313 126.339C141.387 126.896 142.638 127.156 142.638 127.156L143.119 128.608C143.465 128.601 143.819 128.587 144.165 128.566C145.006 128.531 145.819 128.488 146.42 128.608C148.407 129.017 148.294 132.309 150.075 131.139Z" fill="#F15223"/>
<path opacity="0.2" d="M150.075 131.139C151.856 129.976 152.747 126.818 154.514 127.509C156.282 128.207 156.034 131.738 158.006 128.947C159.979 126.163 158.325 122.589 159.844 122.152C159.972 122.11 160.141 122.068 160.332 122.011C160.014 121.137 159.618 120.376 159.187 120.383C158.218 120.397 159.109 121.807 159.194 121.941C159.053 121.779 157.618 120.291 156.331 120.982C154.981 121.715 157.073 123.118 157.073 123.118C156.147 123.132 155.377 124.64 155.377 124.64C155.377 124.64 155.921 122.561 154.839 121.786C153.814 121.053 152.641 124.02 152.514 124.358C152.584 124.069 153.108 121.912 151.969 121.327C150.747 120.7 150.556 124.274 150.556 124.274C150.556 124.274 150.23 119.777 148.237 119.333C146.244 118.889 147.679 124.88 147.679 124.88C147.679 124.88 145.105 122.265 144.964 122.984C144.83 123.703 145.692 125.578 145.692 125.578C145.692 125.578 143.967 123.851 143.232 125.606C142.907 126.381 143.458 127.537 144.179 128.573C145.021 128.538 145.834 128.495 146.434 128.615C148.407 129.017 148.294 132.309 150.075 131.139Z" fill="white"/>
<path d="M192.404 138.166C192.404 138.166 201.375 162.284 201.933 182.499L217.174 179.708C217.174 179.708 219.068 138.377 195.819 133.81L192.404 138.166Z" fill="#F15223"/>
<path opacity="0.2" d="M192.397 138.159C192.397 138.159 193.776 141.866 195.486 147.589C196.448 150.796 197.508 154.637 198.491 158.817C200.23 166.203 201.714 174.64 201.933 182.499L217.174 179.708C217.174 179.708 219.068 138.377 195.819 133.81L192.397 138.159Z" fill="black"/>
<path d="M193.988 132.767C193.988 132.767 194.122 136.495 192.397 138.166L196.617 140.957L197.176 133.817L193.988 132.767Z" fill="#F15223"/>
<path d="M163.082 146.687C163.082 146.687 162.552 144.488 161.689 144.537C160.827 144.586 155.25 143.98 154.104 144.319C152.959 144.664 154.246 148.851 155.235 149.393C156.232 149.936 161.576 149.097 162.474 148.583C163.365 148.068 163.082 146.687 163.082 146.687Z" fill="#FFADA3"/>
<path opacity="0.2" d="M195.486 147.589C196.448 150.796 197.508 154.637 198.491 158.817C204.167 154.109 205.185 142.691 205.185 142.691L195.486 147.589Z" fill="black"/>
<path d="M196.9 141.647C196.9 141.647 186.12 150.465 183.787 151.684C181.454 152.91 162.368 145.411 162.368 145.411L161.06 148.061C161.06 148.061 180.245 157.936 183.787 157.696C187.336 157.449 200.116 147.645 200.116 147.645L196.9 141.647Z" fill="#FFADA3"/>
<path d="M203.609 139.138C198.484 135.826 188.778 147.363 188.778 147.363L194.306 155.434C194.306 155.434 210.133 143.353 203.609 139.138Z" fill="#F15223"/>
<path opacity="0.2" d="M203.609 139.138C198.484 135.826 188.778 147.363 188.778 147.363L194.306 155.434C194.306 155.434 210.133 143.353 203.609 139.138Z" fill="black"/>
<path d="M152.224 145.214C152.224 145.214 150.69 146.053 149.849 145.63C149.008 145.214 145.862 140.076 146.491 139.822C147.12 139.568 149.615 137.912 149.919 138.539C150.223 139.166 153.044 144.544 152.224 145.214Z" fill="#FFADA3"/>
<path d="M162.156 94.0298L185.448 93.7409C186.89 93.7197 188.043 92.5427 188.028 91.1048L187.739 67.8811C187.717 66.4432 186.537 65.2944 185.095 65.3085L161.802 65.5975C160.36 65.6186 159.208 66.7956 159.222 68.2335L159.512 91.4572C159.533 92.8951 160.714 94.051 162.156 94.0298Z" fill="#F15223"/>
<path d="M165.712 74.1751C167.684 70.8906 171.551 72.0959 173.565 74.605C175.523 72.0465 179.355 70.7497 181.405 73.9848C184.869 79.4401 177.934 84.6205 174.654 86.6504C174.279 86.883 173.975 87.0733 173.721 87.2283C173.459 87.0803 173.148 86.8971 172.774 86.6715C169.444 84.7192 162.382 79.715 165.712 74.1751Z" fill="white"/>
<path d="M170.709 91.7251C170.709 91.7251 174.555 100.204 182.967 102.77C182.967 102.77 178.302 100.162 178.549 91.274L170.709 91.7251Z" fill="#F15223"/>
<path d="M144.406 66.1331L121.113 65.8441C119.671 65.823 118.519 64.6459 118.533 63.2081L118.823 39.9843C118.844 38.5465 120.025 37.3977 121.467 37.4117L144.759 37.7007C146.201 37.7219 147.353 38.8989 147.339 40.3367L147.049 63.5605C147.028 64.9984 145.848 66.1472 144.406 66.1331Z" fill="#F15223"/>
<path d="M135.852 63.8284C135.852 63.8284 132.007 72.3074 123.594 74.8729C123.594 74.8729 128.26 72.2651 128.013 63.3773L135.852 63.8284Z" fill="#F15223"/>
<path d="M124.732 49.182C124.846 48.8789 124.987 48.5829 125.135 48.2939V48.2869C126.648 45.3901 129.73 43.4589 133.222 43.5857C136.644 43.7126 139.535 45.7636 140.878 48.6675C141.034 49.0058 141.168 49.3582 141.281 49.7177C141.571 50.641 141.712 51.6136 141.677 52.6286C141.507 57.4566 137.443 61.2273 132.607 61.0582C127.772 60.889 123.99 56.8363 124.16 52.0154C124.188 51.0216 124.386 50.063 124.732 49.182Z" fill="#F15223"/>
<path d="M124.153 52.0156C124.188 51.0147 124.386 50.0632 124.733 49.1752C124.846 48.8721 124.987 48.5761 125.136 48.2871V48.28C126.648 45.3832 129.73 43.452 133.222 43.5789C136.644 43.7058 139.535 45.7568 140.878 48.6606C141.034 48.999 141.168 49.3514 141.281 49.7108C141.571 50.6341 141.712 51.6068 141.677 52.6217C141.507 57.4497 137.443 61.2205 132.607 61.0513C127.765 60.8892 123.983 56.8365 124.153 52.0156Z" fill="white"/>
<path d="M133.399 57.9923C135.082 57.6188 135.732 55.5748 135.845 54.4471C135.859 54.2991 135.753 54.1722 135.605 54.1581C135.456 54.144 135.329 54.2498 135.315 54.3978C135.315 54.426 134.976 57.5201 132.862 57.5272C130.755 57.5413 130.501 54.2357 130.501 54.2075C130.494 54.0595 130.367 53.9537 130.218 53.9608C130.07 53.9678 129.964 54.0947 129.971 54.2427C129.978 54.3978 130.261 58.0769 132.869 58.0558C133.06 58.0487 133.237 58.0276 133.399 57.9923Z" fill="#263238"/>
<path d="M127.383 53.5804C127.546 53.7636 127.751 53.8482 127.829 53.7707C127.914 53.6932 127.843 53.4888 127.68 53.3125C127.518 53.1293 127.313 53.0447 127.235 53.1223C127.15 53.1998 127.221 53.4042 127.383 53.5804Z" fill="#F15223"/>
<path d="M126.655 53.5804C126.818 53.7636 127.023 53.8482 127.101 53.7707C127.186 53.6932 127.115 53.4888 126.952 53.3125C126.79 53.1293 126.585 53.0447 126.507 53.1223C126.422 53.1998 126.493 53.4042 126.655 53.5804Z" fill="#F15223"/>
<path d="M138.404 53.6086C138.213 53.7566 138.001 53.813 137.93 53.7214C137.86 53.6368 137.959 53.4394 138.157 53.2914C138.348 53.1434 138.56 53.087 138.63 53.1787C138.694 53.2632 138.595 53.4535 138.404 53.6086Z" fill="#F15223"/>
<path d="M139.111 53.6086C138.92 53.7566 138.708 53.813 138.637 53.7214C138.567 53.6368 138.666 53.4394 138.864 53.2914C139.054 53.1434 139.266 53.087 139.337 53.1787C139.401 53.2632 139.302 53.4535 139.111 53.6086Z" fill="#F15223"/>
<path d="M137.386 49.6826L134.028 51.2826L137.386 52.5371" stroke="#F15223" stroke-miterlimit="10" stroke-linecap="round" stroke-linejoin="round"/>
<path d="M128.444 49.6826L131.794 51.2826L128.444 52.5371" stroke="#F15223" stroke-miterlimit="10" stroke-linecap="round" stroke-linejoin="round"/>
<path d="M42.5885 192.14C42.4401 193.176 45.2606 193.86 47.558 194.24C47.3672 196.122 46.116 198.025 44.3841 199.801C42.1997 198.575 39.0894 196.954 38.5168 197.356C37.8876 197.786 41.0758 199.844 43.0692 201.049C41.6696 202.289 40.0861 203.445 38.5521 204.46C37.5766 203.551 36.4314 202.748 35.7457 203.185C35.0388 203.636 35.2297 205.045 35.5761 206.3C33.2009 207.681 31.4266 208.52 31.4266 208.52C31.4266 208.52 30.4298 205.51 29.8431 201.803C29.9633 201.571 30.0835 201.331 30.1895 201.077C30.5712 200.196 30.1966 199.823 29.5674 199.696C29.4048 198.075 29.3554 196.404 29.525 194.854C32.2112 194.29 35.4771 193.254 34.2542 191.647C33.519 190.681 32.1688 190.568 30.7621 190.808C30.96 190.484 31.1792 190.181 31.4266 189.906C36.3113 184.535 39.7256 189.906 39.7256 189.906C42.5673 187.545 46.5542 188.186 47.4167 191.872C45.8261 191.463 42.7723 190.857 42.5885 192.14Z" fill="#F15223"/>
<path opacity="0.3" d="M42.5885 192.14C42.4401 193.176 45.2606 193.86 47.558 194.24C47.3672 196.122 46.116 198.025 44.3841 199.801C42.1997 198.575 39.0894 196.954 38.5168 197.356C37.8876 197.786 41.0758 199.844 43.0692 201.049C41.6696 202.289 40.0861 203.445 38.5521 204.46C37.5766 203.551 36.4314 202.748 35.7457 203.185C35.0388 203.636 35.2297 205.045 35.5761 206.3C33.2009 207.681 31.4266 208.52 31.4266 208.52C31.4266 208.52 30.4298 205.51 29.8431 201.803C29.9633 201.571 30.0835 201.331 30.1895 201.077C30.5712 200.196 30.1966 199.823 29.5674 199.696C29.4048 198.075 29.3554 196.404 29.525 194.854C32.2112 194.29 35.4771 193.254 34.2542 191.647C33.519 190.681 32.1688 190.568 30.7621 190.808C30.96 190.484 31.1792 190.181 31.4266 189.906C36.3113 184.535 39.7256 189.906 39.7256 189.906C42.5673 187.545 46.5542 188.186 47.4167 191.872C45.8261 191.463 42.7723 190.857 42.5885 192.14Z" fill="white"/>
<path d="M36.488 231.603L37.1949 231.546C37.1666 231.187 34.3037 195.227 42.3906 191.844C43.2601 191.478 44.066 191.499 44.8436 191.907C47.7701 193.423 49.1698 199.717 49.1839 199.78L49.8767 199.632C49.8201 199.357 48.3922 192.951 45.1758 191.28C44.2073 190.78 43.1823 190.752 42.122 191.196C33.5544 194.776 36.3678 230.102 36.488 231.603Z" fill="#F15223"/>
<path d="M35.4701 230.821C35.6115 229.206 38.9197 191.16 32.7414 187.122C31.2569 186.156 29.9421 185.945 28.8181 186.516C25.8986 187.982 25.5169 194.205 25.5028 194.466L26.2097 194.508C26.2097 194.445 26.5843 188.426 29.1433 187.143C30.0199 186.706 31.1014 186.889 32.3597 187.714C38.1846 191.527 34.8056 230.369 34.7702 230.757L35.4701 230.821Z" fill="#F15223"/>
<path d="M34.537 233.893C34.5864 232.653 35.5973 203.537 29.9774 200.985C28.8676 200.485 27.7366 200.471 26.6338 200.957C22.7741 202.649 20.3919 209.824 20.2929 210.127L20.9645 210.345C20.9857 210.275 23.3467 203.17 26.9166 201.606C27.8426 201.197 28.7474 201.204 29.6805 201.627C33.9926 203.579 34.134 225.563 33.8301 233.865L34.537 233.893Z" fill="#F15223"/>
<path d="M35.9719 232.561L36.6718 232.484C35.6821 223.815 33.7876 200.725 36.8838 197.969C37.3433 197.56 37.7604 197.433 38.1492 197.581C40.2204 198.378 41.4858 205.884 41.7968 208.71L42.4966 208.633C42.3765 207.547 41.2454 198.011 38.3966 196.919C37.7463 196.672 37.0747 196.841 36.4032 197.44C32.4092 201.007 35.8235 231.279 35.9719 232.561Z" fill="#F15223"/>
<path d="M47.7701 216.132H22.3712L24.4919 244.501H45.6494L47.7701 216.132Z" fill="black"/>
<path d="M40.0508 216.132L39.3439 244.501H24.4919L22.3712 216.132H40.0508Z" fill="#81B4B5"/>
<path d="M44.3063 205.729C44.5679 206.42 46.5401 205.877 48.0953 205.327C48.6255 206.554 48.5053 208.154 48.0458 209.838C46.2786 209.831 43.8044 209.894 43.5853 210.331C43.3449 210.811 46.0241 210.987 47.6641 211.05C47.2258 212.298 46.6532 213.545 46.0524 214.701C45.1334 214.476 44.1579 214.37 43.8822 214.87C43.5994 215.392 44.2003 216.196 44.8506 216.851C43.861 218.514 43.0551 219.635 43.0551 219.635C43.0551 219.635 41.408 218.12 39.768 216.033C39.7609 215.85 39.7539 215.66 39.7327 215.47C39.662 214.793 39.3085 214.694 38.8773 214.828C38.2199 213.884 37.619 212.869 37.1878 211.854C38.6511 210.592 40.3053 208.83 38.9975 208.259C38.2128 207.914 37.3363 208.309 36.5587 208.936C36.5658 208.668 36.6011 208.407 36.6577 208.154C37.824 203.17 41.7756 205.32 41.7756 205.32C42.7158 202.896 45.3949 201.923 47.1975 203.903C46.0736 204.207 43.9811 204.876 44.3063 205.729Z" fill="#F15223"/>
<path opacity="0.3" d="M44.3063 205.729C44.5679 206.42 46.5401 205.877 48.0953 205.327C48.6255 206.554 48.5053 208.154 48.0458 209.838C46.2786 209.831 43.8044 209.894 43.5853 210.331C43.3449 210.811 46.0241 210.987 47.6641 211.05C47.2258 212.298 46.6532 213.545 46.0524 214.701C45.1334 214.476 44.1579 214.37 43.8822 214.87C43.5994 215.392 44.2003 216.196 44.8506 216.851C43.861 218.514 43.0551 219.635 43.0551 219.635C43.0551 219.635 41.408 218.12 39.768 216.033C39.7609 215.85 39.7539 215.66 39.7327 215.47C39.662 214.793 39.3085 214.694 38.8773 214.828C38.2199 213.884 37.619 212.869 37.1878 211.854C38.6511 210.592 40.3053 208.83 38.9975 208.259C38.2128 207.914 37.3363 208.309 36.5587 208.936C36.5658 208.668 36.6011 208.407 36.6577 208.154C37.824 203.17 41.7756 205.32 41.7756 205.32C42.7158 202.896 45.3949 201.923 47.1975 203.903C46.0736 204.207 43.9811 204.876 44.3063 205.729Z" fill="white"/>
<path d="M25.4533 209.091C26.2521 209.147 27.0226 209.331 27.7719 209.577C27.9698 209.042 28.0971 208.485 28.1112 207.9C28.2738 202.79 24.605 204.947 22.6681 203.445C21.6996 202.698 20.5191 202.219 19.4234 202.43C19.586 202.712 19.7345 203.001 19.8617 203.304C20.0667 203.791 19.7415 204.305 19.2396 204.397C18.766 204.488 18.2358 204.446 17.8046 204.228C17.6703 204.157 17.5572 204.059 17.437 203.974C17.1684 204.432 16.9281 204.989 16.7301 205.68C16.5322 206.392 16.4332 207.125 16.3979 207.865C16.6877 207.928 16.9705 208.006 17.2532 208.104C17.6915 208.259 17.9319 208.964 17.5713 209.317C17.2603 209.627 16.8998 209.873 16.511 210.057C16.6382 210.895 16.8715 211.699 17.1543 212.453C17.2391 212.467 17.331 212.474 17.4158 212.495C17.5996 212.53 17.7834 212.58 17.9672 212.629C18.0732 212.657 18.1722 212.693 18.2712 212.742C18.5257 212.862 18.7095 213.08 18.7519 213.362C18.7943 213.644 18.6741 213.926 18.4479 214.102C18.3277 214.194 18.2005 214.264 18.0662 214.335C18.6529 215.258 19.3386 215.984 20.095 216.379C20.095 216.379 21.0281 215.97 22.251 215.244C22.0955 215.04 21.9471 214.835 21.8057 214.624C21.636 214.377 21.5653 214.116 21.5865 213.82C21.6077 213.531 21.7845 213.278 22.0036 213.101C22.2086 212.925 22.5409 212.848 22.8095 212.883C23.071 212.918 23.3821 213.073 23.5305 213.299C23.7002 213.552 23.891 213.792 24.0748 214.032C25.0079 213.327 25.941 212.481 26.6762 211.516C26.6479 211.508 26.6197 211.501 26.5985 211.494C26.1248 211.375 25.6441 211.29 25.1564 211.255C24.5485 211.212 24.1667 210.599 24.2162 210.035C24.2798 209.422 24.8807 209.049 25.4533 209.091Z" fill="#F15223"/>
<path opacity="0.5" d="M25.4533 209.091C26.2521 209.147 27.0226 209.331 27.7719 209.577C27.9698 209.042 28.0971 208.485 28.1112 207.9C28.2738 202.79 24.605 204.947 22.6681 203.445C21.6996 202.698 20.5191 202.219 19.4234 202.43C19.586 202.712 19.7345 203.001 19.8617 203.304C20.0667 203.791 19.7415 204.305 19.2396 204.397C18.766 204.488 18.2358 204.446 17.8046 204.228C17.6703 204.157 17.5572 204.059 17.437 203.974C17.1684 204.432 16.9281 204.989 16.7301 205.68C16.5322 206.392 16.4332 207.125 16.3979 207.865C16.6877 207.928 16.9705 208.006 17.2532 208.104C17.6915 208.259 17.9319 208.964 17.5713 209.317C17.2603 209.627 16.8998 209.873 16.511 210.057C16.6382 210.895 16.8715 211.699 17.1543 212.453C17.2391 212.467 17.331 212.474 17.4158 212.495C17.5996 212.53 17.7834 212.58 17.9672 212.629C18.0732 212.657 18.1722 212.693 18.2712 212.742C18.5257 212.862 18.7095 213.08 18.7519 213.362C18.7943 213.644 18.6741 213.926 18.4479 214.102C18.3277 214.194 18.2005 214.264 18.0662 214.335C18.6529 215.258 19.3386 215.984 20.095 216.379C20.095 216.379 21.0281 215.97 22.251 215.244C22.0955 215.04 21.9471 214.835 21.8057 214.624C21.636 214.377 21.5653 214.116 21.5865 213.82C21.6077 213.531 21.7845 213.278 22.0036 213.101C22.2086 212.925 22.5409 212.848 22.8095 212.883C23.071 212.918 23.3821 213.073 23.5305 213.299C23.7002 213.552 23.891 213.792 24.0748 214.032C25.0079 213.327 25.941 212.481 26.6762 211.516C26.6479 211.508 26.6197 211.501 26.5985 211.494C26.1248 211.375 25.6441 211.29 25.1564 211.255C24.5485 211.212 24.1667 210.599 24.2162 210.035C24.2798 209.422 24.8807 209.049 25.4533 209.091Z" fill="white"/>
<path d="M23.9829 191.485C23.5376 191.167 23.0498 190.928 22.5479 190.723C22.6822 190.357 22.8589 190.005 23.1064 189.694C25.2695 186.939 26.245 189.673 27.9274 189.737C28.7616 189.765 29.5957 190.033 30.0764 190.625C29.8643 190.702 29.6593 190.787 29.4614 190.893C29.1362 191.062 29.0867 191.471 29.3059 191.738C29.5179 191.992 29.8148 192.204 30.133 192.281C30.2319 192.302 30.338 192.302 30.4369 192.309C30.3804 192.669 30.2602 193.063 30.0552 193.514C29.8431 193.973 29.5745 194.403 29.2705 194.804C29.0938 194.713 28.91 194.628 28.7121 194.558C28.4152 194.445 27.9769 194.713 28.0122 195.058C28.0405 195.361 28.1183 195.643 28.2385 195.911C27.8002 196.299 27.3266 196.616 26.8459 196.884C26.7964 196.855 26.7469 196.82 26.6903 196.792C26.5772 196.728 26.4571 196.672 26.3369 196.623C26.2662 196.595 26.1955 196.566 26.1248 196.545C25.941 196.496 25.7431 196.531 25.6017 196.658C25.4603 196.785 25.3896 196.989 25.4321 197.18C25.4533 197.278 25.4957 197.377 25.531 197.469C24.8171 197.694 24.1314 197.779 23.5658 197.652C23.5658 197.652 23.2548 197.032 22.9296 196.108C23.0993 196.066 23.2689 196.031 23.4386 195.981C23.6365 195.925 23.785 195.819 23.9052 195.657C24.0183 195.495 24.0395 195.284 24.0041 195.1C23.9688 194.917 23.8345 194.734 23.6789 194.635C23.5305 194.536 23.2902 194.487 23.1205 194.536C22.9226 194.593 22.7176 194.635 22.5126 194.684C22.3288 193.902 22.2157 193.049 22.2581 192.225C22.2793 192.232 22.2934 192.239 22.3076 192.246C22.6115 192.387 22.9014 192.556 23.17 192.753C23.5093 192.993 23.9758 192.838 24.2021 192.528C24.4565 192.168 24.301 191.71 23.9829 191.485Z" fill="#F15223"/>
<path opacity="0.3" d="M23.9829 191.485C23.5376 191.167 23.0498 190.928 22.5479 190.723C22.6822 190.357 22.8589 190.005 23.1064 189.694C25.2695 186.939 26.245 189.673 27.9274 189.737C28.7616 189.765 29.5957 190.033 30.0764 190.625C29.8643 190.702 29.6593 190.787 29.4614 190.893C29.1362 191.062 29.0867 191.471 29.3059 191.738C29.5179 191.992 29.8148 192.204 30.133 192.281C30.2319 192.302 30.338 192.302 30.4369 192.309C30.3804 192.669 30.2602 193.063 30.0552 193.514C29.8431 193.973 29.5745 194.403 29.2705 194.804C29.0938 194.713 28.91 194.628 28.7121 194.558C28.4152 194.445 27.9769 194.713 28.0122 195.058C28.0405 195.361 28.1183 195.643 28.2385 195.911C27.8002 196.299 27.3266 196.616 26.8459 196.884C26.7964 196.855 26.7469 196.82 26.6903 196.792C26.5772 196.728 26.4571 196.672 26.3369 196.623C26.2662 196.595 26.1955 196.566 26.1248 196.545C25.941 196.496 25.7431 196.531 25.6017 196.658C25.4603 196.785 25.3896 196.989 25.4321 197.18C25.4533 197.278 25.4957 197.377 25.531 197.469C24.8171 197.694 24.1314 197.779 23.5658 197.652C23.5658 197.652 23.2548 197.032 22.9296 196.108C23.0993 196.066 23.2689 196.031 23.4386 195.981C23.6365 195.925 23.785 195.819 23.9052 195.657C24.0183 195.495 24.0395 195.284 24.0041 195.1C23.9688 194.917 23.8345 194.734 23.6789 194.635C23.5305 194.536 23.2902 194.487 23.1205 194.536C22.9226 194.593 22.7176 194.635 22.5126 194.684C22.3288 193.902 22.2157 193.049 22.2581 192.225C22.2793 192.232 22.2934 192.239 22.3076 192.246C22.6115 192.387 22.9014 192.556 23.17 192.753C23.5093 192.993 23.9758 192.838 24.2021 192.528C24.4565 192.168 24.301 191.71 23.9829 191.485Z" fill="white"/>
<path d="M44.681 196.595C44.8294 197.631 42.0089 198.314 39.7115 198.695C39.9023 200.577 41.1535 202.48 42.8854 204.256C45.0698 203.03 48.1801 201.408 48.7527 201.81C49.3819 202.24 46.1937 204.298 44.2003 205.503C45.5999 206.744 47.1834 207.9 48.7174 208.915C49.6929 208.006 50.8381 207.202 51.5238 207.639C52.2307 208.09 52.0398 209.5 51.6934 210.754C54.0686 212.136 55.8429 212.975 55.8429 212.975C55.8429 212.975 56.8397 209.965 57.4264 206.258C57.3062 206.025 57.186 205.785 57.08 205.532C56.6983 204.651 57.0729 204.277 57.7021 204.15C57.8647 202.529 57.9141 200.859 57.7445 199.308C55.0583 198.744 51.7924 197.708 53.0153 196.101C53.7505 195.136 55.1007 195.023 56.5074 195.262C56.3095 194.938 56.0903 194.635 55.8429 194.36C50.9582 188.99 47.5439 194.36 47.5439 194.36C44.7022 191.999 40.7153 192.641 39.8528 196.327C41.4434 195.925 44.4972 195.319 44.681 196.595Z" fill="#F15223"/>
<path opacity="0.5" d="M44.681 196.595C44.8294 197.631 42.0089 198.314 39.7115 198.695C39.9023 200.577 41.1535 202.48 42.8854 204.256C45.0698 203.03 48.1801 201.408 48.7527 201.81C49.3819 202.24 46.1937 204.298 44.2003 205.503C45.5999 206.744 47.1834 207.9 48.7174 208.915C49.6929 208.006 50.8381 207.202 51.5238 207.639C52.2307 208.09 52.0398 209.5 51.6934 210.754C54.0686 212.136 55.8429 212.975 55.8429 212.975C55.8429 212.975 56.8397 209.965 57.4264 206.258C57.3062 206.025 57.186 205.785 57.08 205.532C56.6983 204.651 57.0729 204.277 57.7021 204.15C57.8647 202.529 57.9141 200.859 57.7445 199.308C55.0583 198.744 51.7924 197.708 53.0153 196.101C53.7505 195.136 55.1007 195.023 56.5074 195.262C56.3095 194.938 56.0903 194.635 55.8429 194.36C50.9582 188.99 47.5439 194.36 47.5439 194.36C44.7022 191.999 40.7153 192.641 39.8528 196.327C41.4434 195.925 44.4972 195.319 44.681 196.595Z" fill="white"/>
</g>
<defs>
<clipPath id="clip0_705_17986">
<rect width="281" height="251" fill="white"/>
</clipPath>
</defs>
</svg>
