<svg width="24" height="24" viewBox="0 0 24 24" fill="none" xmlns="http://www.w3.org/2000/svg">
<path d="M11.9671 22C11.5509 21.9349 11.13 21.8943 10.719 21.801C9.00137 21.4109 7.50707 20.5807 6.38325 19.0625C5.68895 18.125 5.30609 17.0505 5.27847 15.8354C5.26609 15.3 5.43467 14.8125 5.63752 14.3401C6.13134 13.1911 6.78849 12.1536 7.51421 11.1719C8.29517 10.1156 9.11328 9.09219 9.91567 8.05521C9.96472 7.99219 10.0166 7.93177 10.0995 7.83021C9.87614 7.83021 9.69566 7.83229 9.51566 7.82969C9.24709 7.82604 9.07518 7.65625 9.08137 7.40573C9.08756 7.16302 9.25756 7.00365 9.51709 7.00052C9.64138 6.99896 9.76614 7 9.89043 7C9.90424 6.98333 9.91852 6.96615 9.93233 6.94948C9.88233 6.91198 9.82424 6.88333 9.78328 6.83646C9.22709 6.19583 8.64899 5.57552 8.12993 4.90052C7.86422 4.55521 7.6766 4.125 7.50993 3.70625C7.42612 3.49531 7.42183 3.21562 7.46183 2.98333C7.55421 2.44115 8.00422 2.17708 8.56375 2.29115C9.11471 2.40365 9.60662 2.67708 10.0885 2.97344C10.3519 3.13542 10.6081 3.31146 10.8785 3.48854C11.299 2.90677 11.6847 2.27917 12.359 2C12.4543 2 12.549 2 12.6443 2C13.3138 2.27865 13.6995 2.89687 14.1262 3.49323C14.2567 3.40469 14.3848 3.3151 14.5148 3.22917C15.0238 2.89427 15.5386 2.57187 16.111 2.38073C16.2243 2.34271 16.3395 2.3099 16.4562 2.2875C17.211 2.14271 17.7424 2.74948 17.5343 3.55833C17.4443 3.90781 17.2853 4.24844 17.1043 4.55521C16.6076 5.3974 15.9529 6.09115 15.2876 6.77083C15.2238 6.83594 15.1595 6.89948 15.0595 7C15.2443 7 15.3833 6.99635 15.5229 7.00052C15.7529 7.00729 15.9172 7.17656 15.9224 7.40573C15.9276 7.64375 15.7634 7.82135 15.5229 7.8276C15.3343 7.83281 15.1452 7.82865 14.9086 7.82865C14.9824 7.92135 15.0291 7.98229 15.0776 8.04115C16.32 9.54062 17.5234 11.075 18.5429 12.7693C18.8296 13.2458 19.0753 13.7526 19.3277 14.2526C19.8405 15.2687 19.8139 16.3219 19.4715 17.3844C18.9834 18.8984 18.0262 19.976 16.7867 20.774C15.6833 21.4844 14.4829 21.8604 13.2095 21.9661C13.1514 21.9708 13.0938 21.9875 13.0362 21.999C12.68 22 12.3233 22 11.9671 22ZM12.5005 7.85104C12.0966 7.85104 11.6928 7.85573 11.289 7.84792C11.1714 7.84583 11.0919 7.88854 11.0128 7.98125C9.96472 9.20729 8.95899 10.4729 8.02517 11.8057C7.40707 12.6885 6.82182 13.5943 6.35277 14.5875C6.00039 15.3328 5.97277 16.0891 6.18134 16.8755C6.54563 18.25 7.36754 19.226 8.45041 19.9615C9.56423 20.7177 10.79 21.0839 12.0938 21.1505C13.5781 21.2266 14.9886 20.9224 16.2948 20.1281C17.3334 19.4969 18.1662 18.6406 18.6448 17.4234C19.0462 16.4021 19.1077 15.3875 18.5586 14.3953C18.46 14.2177 18.3781 14.0286 18.2777 13.8526C17.0434 11.6901 15.5162 9.7849 13.9352 7.92708C13.8948 7.87917 13.8114 7.85469 13.7476 7.85365C13.3319 7.84792 12.9162 7.85104 12.5005 7.85104ZM12.4919 7C12.9076 7 13.3233 7.00521 13.7386 6.99531C13.8248 6.99323 13.9305 6.95937 13.9919 6.89792C14.5567 6.33177 15.1324 5.77656 15.6667 5.17708C16.0086 4.79323 16.2991 4.35104 16.5838 3.9125C16.6996 3.73438 16.7519 3.50156 16.8105 3.28594C16.8476 3.15052 16.7715 3.06875 16.6405 3.10104C16.4562 3.14687 16.2586 3.17344 16.0957 3.26875C15.5005 3.61719 14.9124 3.98021 14.3324 4.35833C14.0176 4.56354 13.8629 4.53646 13.6429 4.22031C13.3628 3.81823 13.0738 3.42083 12.7633 3.04687C12.5276 2.76354 12.4624 2.7625 12.2343 3.04062C11.9219 3.42135 11.6324 3.82656 11.3485 4.23385C11.1414 4.53125 10.9752 4.57135 10.6862 4.36771C10.3271 4.1151 9.97376 3.8474 9.59519 3.63385C9.23423 3.43021 8.85137 3.26615 8.46613 3.12448C8.20946 3.03021 8.1185 3.13958 8.21422 3.41771C8.30517 3.68229 8.42184 3.94531 8.57137 4.17448C9.26423 5.23646 10.1452 6.1 11.0504 6.9349C11.0981 6.97865 11.1795 6.99531 11.2457 6.99635C11.6609 7.0026 12.0766 7 12.4919 7Z" fill="#F15223" stroke="#F15223" stroke-width="0.3"/>
<path d="M15.2778 15.8935C15.2778 16.7827 14.803 17.5559 13.8533 18.2131C13.4925 18.4644 13.2218 18.6094 13.0414 18.648C12.8989 18.677 12.595 18.6722 12.1297 18.6335C11.9113 18.6142 11.6786 18.4934 11.4317 18.2711C11.1848 18.0391 11.0566 17.8169 11.0471 17.6042C11.0376 17.3916 11.0328 16.6329 11.0328 15.3282H10.4061L9.72229 14.6323H11.0898C11.0993 14.584 11.0993 14.1249 11.0898 13.255C11.0898 12.9264 10.9236 12.7621 10.5912 12.7621C10.4488 12.7621 10.3491 12.7863 10.2921 12.8346C10.2446 12.6993 10.1686 12.477 10.0642 12.1678C10.4725 11.9938 10.8097 11.9551 11.0756 12.0518C11.5694 12.2257 11.8116 12.5688 11.8021 13.0811C11.7926 13.3904 11.7973 13.7238 11.8163 14.0814C11.8258 14.3037 11.8258 14.4825 11.8163 14.6178H12.2009L12.8704 15.3282H11.8448V17.2998C11.8448 17.7057 12.0727 17.9087 12.5286 17.9087C13.0984 17.9087 13.5495 17.5946 13.8818 16.9663C14.1098 16.5411 14.2095 16.2705 14.181 16.1545C13.8391 16.1835 13.5637 16.1158 13.3548 15.9515C13.1458 15.7872 13.0604 15.5311 13.0984 15.1832C13.1553 14.613 13.464 14.3278 14.0243 14.3278C14.86 14.3278 15.2778 14.8497 15.2778 15.8935Z" fill="#F15223"/>
</svg>
